<svg xmlns="http://www.w3.org/2000/svg" xmlns:xlink="http://www.w3.org/1999/xlink" version="1.1" viewBox="0 0 2500 1000" style="background: #ffffff"><defs><style>@import url(https://fonts.googleapis.com/css?family=Open+Sans:400,700);</style></defs><g transform="translate(25,100)"><rect width="450" height="300" rx="3" ry="3" x="0" y="0" fill="#438dd5" stroke-width="2" stroke="#3c7fc0"/><text x="225" y="132" text-anchor="middle" fill="#ffffff" font-size="30px" font-family="Open Sans"><tspan x="225" dy="40px">App</tspan></text></g><g transform="translate(525,100)"><path id="keyDatabaseCylinderPath" d="M 0,22.5 a 225,22.5 0,0,0 450 0 a 225,22.5 0,0,0 -450 0 l 0,255 a 225,22.5 0,0,0 450 0 l 0,-255" fill="#438dd5" stroke-width="2" stroke="#3c7fc0"></path><text x="225" y="143.25" text-anchor="middle" fill="#ffffff" font-size="30px" font-family="Open Sans"><tspan x="225" dy="40px">Database</tspan></text></g><g transform="translate(1025,100)"><rect width="450" height="300" rx="3" ry="3" x="0" y="0" fill="#dddddd" stroke-width="2" stroke="#c7c7c7"/><text x="225" y="132" text-anchor="middle" fill="#000000" font-size="30px" font-family="Open Sans"><tspan x="225" dy="40px">Element</tspan></text></g><g transform="translate(1525,25)"><rect x="0" y="180" width="450" height="270" rx="90" fill="#08427b" stroke-width="2" stroke="#073b6f"/><circle cx="225" cy="100" r="100" fill="#08427b" stroke-width="2" stroke="#073b6f"/><line x1="90" y1="300" x2="90" y2="450" stroke-width="2" stroke="#073b6f"/><line x1="360" y1="300" x2="360" y2="450" stroke-width="2" stroke="#073b6f"/><text x="225" y="257" text-anchor="middle" fill="#ffffff" font-size="30px" font-family="Open Sans"><tspan x="225" dy="40px">Person</tspan></text></g><g transform="translate(2025,100)"><path id="keyQueuePipePath" d="M 22.5,0 a 22.5,150 0,0,1 0 300 a 22.5,150 0,0,1 0 -300 l 405,0 a 22.5,150 0,0,1 0 300 l -405,0" fill="#438dd5" stroke-width="2" stroke="#3c7fc0"></path><text x="225" y="132" text-anchor="middle" fill="#ffffff" font-size="30px" font-family="Open Sans"><tspan x="225" dy="40px">Queue</tspan></text></g><g transform="translate(25,600)"><rect width="450" height="300" rx="3" ry="3" x="0" y="0" fill="#999999" stroke-width="2" stroke="#8a8a8a"/><text x="225" y="114" text-anchor="middle" fill="#ffffff" font-size="30px" font-family="Open Sans"><tspan x="225" dy="40px">Software System,</tspan><tspan x="225" dy="40px">External System</tspan></text></g><g transform="translate(525,670)"><path d="M390,0 L390,60 L450,30 L 390,0" style="fill:#707070" stroke-dasharray="" /><path d="M0,30 L390,30" style="stroke:#707070; stroke-width: 6; fill: none; stroke-dasharray: 30 30;" /><text x="225" y="77" text-anchor="middle" fill="#707070" font-size="30px" font-family="Open Sans"><tspan x="225" dy="40px">Relationship</tspan></text></g></svg>