<svg xmlns="http://www.w3.org/2000/svg" xmlns:xlink="http://www.w3.org/1999/xlink" version="1.1" viewBox="0 0 4770 2620" style="background: #ffffff"><defs><style>@import url(https://fonts.googleapis.com/css?family=Open+Sans:400,700);</style></defs><defs joint-selector="defs"></defs><g joint-selector="layers"  transform="matrix(1,0,0,1,0,0)"><g ></g><g ><!--z-index:-14--><!--z-index:-13--><!--z-index:-12--><!--z-index:-11--><!--z-index:-10--><!--z-index:-9--><!--z-index:-8--><!--z-index:-7--><!--z-index:-6--><!--z-index:-5--><!--z-index:-4--><!--z-index:-3--><!--z-index:-2--><!--z-index:-1--><!--z-index:0--><!--z-index:1--><!--z-index:2--><!--z-index:3--><!--z-index:4--><!--z-index:5--><!--z-index:6--><!--z-index:7--><!--z-index:8--><!--z-index:9--><!--z-index:10--><!--z-index:11--><!--z-index:12--><!--z-index:13--><!--z-index:14--><!--z-index:15--><!--z-index:16--><!--z-index:17--><!--z-index:18--><!--z-index:19--><!--z-index:20--><!--z-index:21--><!--z-index:22--><!--z-index:23--><!--z-index:24--><!--z-index:25--><!--z-index:26--><!--z-index:27--><!--z-index:28--><!--z-index:29--><g   id="j_456"  transform="translate(20,2583.6)"><g id="v-5916"><text  id="v-5917" font-size="22px" xml:space="preserve" y="0.8em" font-weight="normal" text-anchor="start" fill="#aaaaaa" pointer-events="none" display="block" font-family="Open Sans"><tspan dy="0" >Saturday, December 14, 2024 at 10:02 AM Eastern European Standard Time</tspan></text></g></g><!--z-index:30--><g   id="j_455"  transform="translate(20,2540.4)"><g id="v-5914"><text  id="v-5915" font-size="36px" xml:space="preserve" y="0.8em" font-weight="normal" text-anchor="start" fill="#000000" pointer-events="none" display="block" font-family="Open Sans"><tspan dy="0" >[Container] Train Ticketing System</tspan></text></g></g><!--z-index:31--><g   id="j_457"  transform="translate(3957,1985)" style=""><g  id="v-5924" style="opacity: 1;"><rect  x="0" y="160" width="400" height="240" rx="70" id="v-5926" stroke="#073b6f" stroke-width="2" pointer-events="visiblePainted" fill="#08427b" style="fill: rgb(8, 66, 123); stroke: rgb(7, 59, 111);"></rect><circle  cx="200" cy="88.88888888888889" r="88.88888888888889" id="v-5925" stroke="#073b6f" stroke-width="2" pointer-events="visiblePainted" fill="#08427b" style="fill: rgb(8, 66, 123); stroke: rgb(7, 59, 111);"></circle><line  x1="80" y1="266.6666666666667" x2="80" y2="400" id="v-5932" stroke="#073b6f" stroke-width="2" style="stroke: rgb(7, 59, 111);"></line><line  x1="320" y1="266.6666666666667" x2="320" y2="400" id="v-5933" stroke="#073b6f" stroke-width="2" style="stroke: rgb(7, 59, 111);"></line><text  id="v-5927" font-size="34" xml:space="preserve" y="0.8em" font-weight="bold" text-anchor="middle" pointer-events="visible" font-family="Open Sans" fill="#ffffff" transform="matrix(1,0,0,1,200,218.1)" style="fill: rgb(255, 255, 255);"><tspan dy="0" >Train Ticket Buyer</tspan></text><text  id="v-5928" font-size="17" xml:space="preserve" y="0.8em" text-anchor="middle" font-family="Open Sans" fill="#ffffff" transform="matrix(1,0,0,1,200,258.9)" style="fill: rgb(255, 255, 255);"><tspan dy="0" >[Person]</tspan></text><text  id="v-5929" font-size="24" xml:space="preserve" y="0.8em" text-anchor="middle" font-family="Open Sans" fill="#ffffff" transform="matrix(1,0,0,1,200,289.3)" style="fill: rgb(255, 255, 255);"><tspan dy="0" >A customer of the train ticketing</tspan><tspan dy="1.2em" x="0" >company.</tspan></text><g  id="v-5930" font-weight="normal" text-anchor="middle" color="#ffffff" transform="matrix(1,0,0,1,197.5,368)" style="fill: rgb(255, 255, 255);" display="none"><g ></g><g ></g><g ></g><g ></g></g><image  id="v-5931"></image></g></g><!--z-index:32--><g   id="j_459"  transform="translate(200,165)" style=""><g id="v-5947"><rect  id="v-5948" width="2740" height="1611" rx="0" ry="0" fill="#ffffff" stroke="#0f5eaa" stroke-width="1" stroke-dasharray="20,20" pointer-events="none"></rect><text  id="v-5949" font-size="24px" xml:space="preserve" y="1572" font-weight="normal" fill="#0f5eaa" text-anchor="start" pointer-events="visible" font-family="Open Sans" transform="matrix(1,0,0,1,15,0)"><tspan dy="0" >Train Ticketing System</tspan></text><text  id="v-5950" font-size="17px" xml:space="preserve" y="1596" font-weight="normal" fill="#0f5eaa" text-anchor="start" pointer-events="visible" font-family="Open Sans" transform="matrix(1,0,0,1,15,0)"><tspan dy="0" >[Software System]</tspan></text><image  id="v-5951" pointer-events="visible"></image></g></g><!--z-index:33--><g   id="j_458"  transform="translate(2470,785)" style=""><g  id="v-5940" style="opacity: 1;"><rect  id="v-5941" rx="1" ry="1" stroke="#3c7fc0" stroke-width="2" pointer-events="visiblePainted" fill="#438dd5" width="450" height="300" style="fill: rgb(67, 141, 213); stroke: rgb(60, 127, 192);"></rect><text  id="v-5942" font-size="34" xml:space="preserve" y="0.8em" font-weight="bold" text-anchor="middle" pointer-events="visible" font-family="Open Sans" fill="#ffffff" transform="matrix(1,0,0,1,225,88.1)" style="fill: rgb(255, 255, 255);"><tspan dy="0" >Order Application</tspan></text><text  id="v-5943" font-size="17" xml:space="preserve" y="0.8em" text-anchor="middle" font-family="Open Sans" fill="#ffffff" transform="matrix(1,0,0,1,225,128.9)" style="fill: rgb(255, 255, 255);"><tspan dy="0" >[Container: Python/Flask]</tspan></text><text  id="v-5944" font-size="24" xml:space="preserve" y="0.8em" text-anchor="middle" font-family="Open Sans" fill="#ffffff" transform="matrix(1,0,0,1,225,159.3)" style="fill: rgb(255, 255, 255);"><tspan dy="0" >Handles order processing and ticket</tspan><tspan dy="1.2em" x="0" >management</tspan></text><g  id="v-5945" color="#ffffff" transform="matrix(1,0,0,1,222.5,268)" style="fill: rgb(255, 255, 255);" display="none"><g ></g><g ></g><g ></g><g ></g></g><image  id="v-5946"></image></g></g><!--z-index:34--><g   id="j_460"  transform="translate(970,785)" style=""><g  id="v-5958" style="opacity: 1;"><rect  id="v-5959" rx="1" ry="1" stroke="#3c7fc0" stroke-width="2" pointer-events="visiblePainted" fill="#438dd5" width="450" height="300" style="fill: rgb(67, 141, 213); stroke: rgb(60, 127, 192);"></rect><text  id="v-5960" font-size="34" xml:space="preserve" y="0.8em" font-weight="bold" text-anchor="middle" pointer-events="visible" font-family="Open Sans" fill="#ffffff" transform="matrix(1,0,0,1,225,88.1)" style="fill: rgb(255, 255, 255);"><tspan dy="0" >Auth Application</tspan></text><text  id="v-5961" font-size="17" xml:space="preserve" y="0.8em" text-anchor="middle" font-family="Open Sans" fill="#ffffff" transform="matrix(1,0,0,1,225,128.9)" style="fill: rgb(255, 255, 255);"><tspan dy="0" >[Container: Python/Flask]</tspan></text><text  id="v-5962" font-size="24" xml:space="preserve" y="0.8em" text-anchor="middle" font-family="Open Sans" fill="#ffffff" transform="matrix(1,0,0,1,225,159.3)" style="fill: rgb(255, 255, 255);"><tspan dy="0" >Handles user authentication and</tspan><tspan dy="1.2em" x="0" >authorization</tspan></text><g  id="v-5963" color="#ffffff" transform="matrix(1,0,0,1,222.5,268)" style="fill: rgb(255, 255, 255);" display="none"><g ></g><g ></g><g ></g><g ></g></g><image  id="v-5964"></image></g></g><!--z-index:35--><g   id="j_461"  transform="translate(1720,785)" style=""><g  id="v-5971" style="opacity: 1;"><rect  id="v-5972" rx="1" ry="1" stroke="#3c7fc0" stroke-width="2" pointer-events="visiblePainted" fill="#438dd5" width="450" height="300" style="fill: rgb(67, 141, 213); stroke: rgb(60, 127, 192);"></rect><text  id="v-5973" font-size="34" xml:space="preserve" y="0.8em" font-weight="bold" text-anchor="middle" pointer-events="visible" font-family="Open Sans" fill="#ffffff" transform="matrix(1,0,0,1,225,88.1)" style="fill: rgb(255, 255, 255);"><tspan dy="0" >Search Application</tspan></text><text  id="v-5974" font-size="17" xml:space="preserve" y="0.8em" text-anchor="middle" font-family="Open Sans" fill="#ffffff" transform="matrix(1,0,0,1,225,128.9)" style="fill: rgb(255, 255, 255);"><tspan dy="0" >[Container: Python/Flask]</tspan></text><text  id="v-5975" font-size="24" xml:space="preserve" y="0.8em" text-anchor="middle" font-family="Open Sans" fill="#ffffff" transform="matrix(1,0,0,1,225,159.3)" style="fill: rgb(255, 255, 255);"><tspan dy="0" >Handles train and seat search</tspan><tspan dy="1.2em" x="0" >functionality</tspan></text><g  id="v-5976" color="#ffffff" transform="matrix(1,0,0,1,222.5,268)" style="fill: rgb(255, 255, 255);" display="none"><g ></g><g ></g><g ></g><g ></g></g><image  id="v-5977"></image></g></g><!--z-index:36--><g   id="j_462"  transform="translate(2095,185)" style=""><g  id="v-5981" style="opacity: 1;"><rect  id="v-5982" rx="1" ry="1" stroke="#c7c7c7" stroke-width="2" pointer-events="visiblePainted" fill="#dddddd" width="450" height="300" style="fill: rgb(221, 221, 221); stroke: rgb(199, 199, 199);"></rect><text  id="v-5983" font-size="34" xml:space="preserve" y="0.8em" font-weight="bold" text-anchor="middle" pointer-events="visible" font-family="Open Sans" fill="#000000" transform="matrix(1,0,0,1,225,88.1)" style="fill: rgb(0, 0, 0);"><tspan dy="0" >Web Application</tspan></text><text  id="v-5984" font-size="17" xml:space="preserve" y="0.8em" text-anchor="middle" font-family="Open Sans" fill="#000000" transform="matrix(1,0,0,1,225,128.9)" style="fill: rgb(0, 0, 0);"><tspan dy="0" >[Container: Python/Flask]</tspan></text><text  id="v-5985" font-size="24" xml:space="preserve" y="0.8em" text-anchor="middle" font-family="Open Sans" fill="#000000" transform="matrix(1,0,0,1,225,159.3)" style="fill: rgb(0, 0, 0);"><tspan dy="0" >Delivers the static content and</tspan><tspan dy="1.2em" x="0" >single page application.</tspan></text><g  id="v-5986" color="#000000" transform="matrix(1,0,0,1,210,268)" style="fill: rgb(0, 0, 0);" display="none"><g  transform="translate(5 0)"><svg xmlns="http://www.w3.org/2000/svg" width="20" height="20" fill="currentColor" viewBox="0 0 16 16"><path fill-rule="evenodd" d="M6.5 12a5.5 5.5 0 1 0 0-11 5.5 5.5 0 0 0 0 11zM13 6.5a6.5 6.5 0 1 1-13 0 6.5 6.5 0 0 1 13 0z"></path><path d="M10.344 11.742c.03.04.062.078.098.115l3.85 3.85a1 1 0 0 0 1.415-1.414l-3.85-3.85a1.007 1.007 0 0 0-.115-.1 6.538 6.538 0 0 1-1.398 1.4z"></path><path fill-rule="evenodd" d="M6.5 3a.5.5 0 0 1 .5.5V6h2.5a.5.5 0 0 1 0 1H7v2.5a.5.5 0 0 1-1 0V7H3.5a.5.5 0 0 1 0-1H6V3.5a.5.5 0 0 1 .5-.5z"></path></svg></g><g ></g><g ></g><g ></g></g><image  id="v-5987"></image></g></g><!--z-index:37--><g   id="j_463"  transform="translate(970,1385)" style=""><g  id="v-5991" style="opacity: 1;"><path  d="M 30,0 a 30,150 0,0,1 0 300 a 30,150 0,0,1 0 -300 l 390,0 a 30,150 0,0,1 0 300 l -390,0" id="v-5992" stroke="#3c7fc0" stroke-width="2" pointer-events="visiblePainted" fill="#438dd5" style="fill: rgb(67, 141, 213); stroke: rgb(60, 127, 192);"></path><rect  id="v-5993" stroke-width="0" pointer-events="visiblePainted" fill="none" stroke="none" width="420" height="300" x="30" y="0"></rect><text  id="v-5994" font-size="34" xml:space="preserve" y="0.8em" font-weight="bold" text-anchor="middle" pointer-events="visible" font-family="Open Sans" fill="#ffffff" transform="matrix(1,0,0,1,240,88.1)" style="fill: rgb(255, 255, 255);"><tspan dy="0" >Message Bus</tspan></text><text  id="v-5995" font-size="17" xml:space="preserve" y="0.8em" text-anchor="middle" font-family="Open Sans" fill="#ffffff" transform="matrix(1,0,0,1,240,128.9)" style="fill: rgb(255, 255, 255);"><tspan dy="0" >[Container: RabbitMQ]</tspan></text><text  id="v-5996" font-size="24" xml:space="preserve" y="0.8em" text-anchor="middle" font-family="Open Sans" fill="#ffffff" transform="matrix(1,0,0,1,240,159.3)" style="fill: rgb(255, 255, 255);"><tspan dy="0" >Handles asynchronous</tspan><tspan dy="1.2em" x="0" >communication between services</tspan></text><g  id="v-5997" font-weight="normal" text-anchor="middle" color="#ffffff" transform="matrix(1,0,0,1,237.5,268)" style="fill: rgb(255, 255, 255);" display="none"><g ></g><g ></g><g ></g><g ></g></g><image  id="v-5998"></image></g></g><!--z-index:38--><g   id="j_464"  transform="translate(220,1385)" style=""><g  id="v-6002" style="opacity: 1;"><path  d="M 0,30 a 225,30 0,0,0 450 0 a 225,30 0,0,0 -450 0 l 0,240 a 225,30 0,0,0 450 0 l 0,-240" id="v-6003" stroke="#3c7fc0" stroke-width="2" pointer-events="visiblePainted" fill="#438dd5" style="fill: rgb(67, 141, 213); stroke: rgb(60, 127, 192);"></path><rect  id="v-6004" stroke-width="0" pointer-events="visiblePainted" fill="none" stroke="none" width="450" height="270" x="0" y="30"></rect><text  id="v-6005" font-size="34" xml:space="preserve" y="0.8em" font-weight="bold" text-anchor="middle" pointer-events="visible" font-family="Open Sans" fill="#ffffff" transform="matrix(1,0,0,1,225,110.6)" style="fill: rgb(255, 255, 255);"><tspan dy="0" >Auth Database</tspan></text><text  id="v-6006" font-size="17" xml:space="preserve" y="0.8em" text-anchor="middle" font-family="Open Sans" fill="#ffffff" transform="matrix(1,0,0,1,225,151.4)" style="fill: rgb(255, 255, 255);"><tspan dy="0" >[Container: MySQL]</tspan></text><text  id="v-6007" font-size="24" xml:space="preserve" y="0.8em" text-anchor="middle" font-family="Open Sans" fill="#ffffff" transform="matrix(1,0,0,1,225,181.8)" style="fill: rgb(255, 255, 255);"><tspan dy="0" >Stores user accounts and</tspan><tspan dy="1.2em" x="0" >authentication data</tspan></text><g  id="v-6008" font-weight="normal" text-anchor="middle" color="#ffffff" transform="matrix(1,0,0,1,222.5,268)" style="fill: rgb(255, 255, 255);" display="none"><g ></g><g ></g><g ></g><g ></g></g><image  id="v-6009"></image></g></g><!--z-index:39--><g   id="j_465"  transform="translate(2470,1385)" style=""><g  id="v-6013" style="opacity: 1;"><path  d="M 0,30 a 225,30 0,0,0 450 0 a 225,30 0,0,0 -450 0 l 0,240 a 225,30 0,0,0 450 0 l 0,-240" id="v-6014" stroke="#3c7fc0" stroke-width="2" pointer-events="visiblePainted" fill="#438dd5" style="fill: rgb(67, 141, 213); stroke: rgb(60, 127, 192);"></path><rect  id="v-6015" stroke-width="0" pointer-events="visiblePainted" fill="none" stroke="none" width="450" height="270" x="0" y="30"></rect><text  id="v-6016" font-size="34" xml:space="preserve" y="0.8em" font-weight="bold" text-anchor="middle" pointer-events="visible" font-family="Open Sans" fill="#ffffff" transform="matrix(1,0,0,1,225,125)" style="fill: rgb(255, 255, 255);"><tspan dy="0" >Order Database</tspan></text><text  id="v-6017" font-size="17" xml:space="preserve" y="0.8em" text-anchor="middle" font-family="Open Sans" fill="#ffffff" transform="matrix(1,0,0,1,225,165.8)" style="fill: rgb(255, 255, 255);"><tspan dy="0" >[Container: MySQL]</tspan></text><text  id="v-6018" font-size="24" xml:space="preserve" y="0.8em" text-anchor="middle" font-family="Open Sans" fill="#ffffff" transform="matrix(1,0,0,1,225,196.2)" style="fill: rgb(255, 255, 255);"><tspan dy="0" >Stores order and ticket information</tspan></text><g  id="v-6019" font-weight="normal" text-anchor="middle" color="#ffffff" transform="matrix(1,0,0,1,222.5,268)" style="fill: rgb(255, 255, 255);" display="none"><g ></g><g ></g><g ></g><g ></g></g><image  id="v-6020"></image></g></g><!--z-index:40--><g   id="j_466"  transform="translate(1720,1385)" style=""><g  id="v-6024" style="opacity: 1;"><path  d="M 0,30 a 225,30 0,0,0 450 0 a 225,30 0,0,0 -450 0 l 0,240 a 225,30 0,0,0 450 0 l 0,-240" id="v-6025" stroke="#3c7fc0" stroke-width="2" pointer-events="visiblePainted" fill="#438dd5" style="fill: rgb(67, 141, 213); stroke: rgb(60, 127, 192);"></path><rect  id="v-6026" stroke-width="0" pointer-events="visiblePainted" fill="none" stroke="none" width="450" height="270" x="0" y="30"></rect><text  id="v-6027" font-size="34" xml:space="preserve" y="0.8em" font-weight="bold" text-anchor="middle" pointer-events="visible" font-family="Open Sans" fill="#ffffff" transform="matrix(1,0,0,1,225,110.6)" style="fill: rgb(255, 255, 255);"><tspan dy="0" >Search Database</tspan></text><text  id="v-6028" font-size="17" xml:space="preserve" y="0.8em" text-anchor="middle" font-family="Open Sans" fill="#ffffff" transform="matrix(1,0,0,1,225,151.4)" style="fill: rgb(255, 255, 255);"><tspan dy="0" >[Container: MySQL]</tspan></text><text  id="v-6029" font-size="24" xml:space="preserve" y="0.8em" text-anchor="middle" font-family="Open Sans" fill="#ffffff" transform="matrix(1,0,0,1,225,181.8)" style="fill: rgb(255, 255, 255);"><tspan dy="0" >Stores train and seat availability</tspan><tspan dy="1.2em" x="0" >data</tspan></text><g  id="v-6030" font-weight="normal" text-anchor="middle" color="#ffffff" transform="matrix(1,0,0,1,222.5,268)" style="fill: rgb(255, 255, 255);" display="none"><g ></g><g ></g><g ></g><g ></g></g><image  id="v-6031"></image></g></g><!--z-index:41--><g   id="j_467"  transform="translate(3220,1385)" style=""><g  id="v-6038" style="opacity: 1;"><rect  id="v-6039" rx="1" ry="1" stroke="#8a8a8a" stroke-width="2" pointer-events="visiblePainted" fill="#999999" width="450" height="300" style="fill: rgb(153, 153, 153); stroke: rgb(138, 138, 138);"></rect><text  id="v-6040" font-size="34" xml:space="preserve" y="0.8em" font-weight="bold" text-anchor="middle" pointer-events="visible" font-family="Open Sans" fill="#ffffff" transform="matrix(1,0,0,1,225,102.5)" style="fill: rgb(255, 255, 255);"><tspan dy="0" >Email System (SendGrid)</tspan></text><text  id="v-6041" font-size="17" xml:space="preserve" y="0.8em" text-anchor="middle" font-family="Open Sans" fill="#ffffff" transform="matrix(1,0,0,1,225,143.3)" style="fill: rgb(255, 255, 255);"><tspan dy="0" >[Software System]</tspan></text><text  id="v-6042" font-size="24" xml:space="preserve" y="0.8em" text-anchor="middle" font-family="Open Sans" fill="#ffffff" transform="matrix(1,0,0,1,225,173.7)" style="fill: rgb(255, 255, 255);"><tspan dy="0" >Sends out emails to customers.</tspan></text><g  id="v-6043" color="#ffffff" transform="matrix(1,0,0,1,222.5,268)" style="fill: rgb(255, 255, 255);" display="none"><g ></g><g ></g><g ></g><g ></g></g><image  id="v-6044"></image></g></g><!--z-index:42--><g   id="j_468"  transform="translate(3970,1385)" style=""><g  id="v-6051" style="opacity: 1;"><rect  id="v-6052" rx="1" ry="1" stroke="#8a8a8a" stroke-width="2" pointer-events="visiblePainted" fill="#999999" width="450" height="300" style="fill: rgb(153, 153, 153); stroke: rgb(138, 138, 138);"></rect><text  id="v-6053" font-size="34" xml:space="preserve" y="0.8em" font-weight="bold" text-anchor="middle" pointer-events="visible" font-family="Open Sans" fill="#ffffff" transform="matrix(1,0,0,1,225,102.5)" style="fill: rgb(255, 255, 255);"><tspan dy="0" >Payment System (Stripe)</tspan></text><text  id="v-6054" font-size="17" xml:space="preserve" y="0.8em" text-anchor="middle" font-family="Open Sans" fill="#ffffff" transform="matrix(1,0,0,1,225,143.3)" style="fill: rgb(255, 255, 255);"><tspan dy="0" >[Software System]</tspan></text><text  id="v-6055" font-size="24" xml:space="preserve" y="0.8em" text-anchor="middle" font-family="Open Sans" fill="#ffffff" transform="matrix(1,0,0,1,225,173.7)" style="fill: rgb(255, 255, 255);"><tspan dy="0" >Handles payments for tickets.</tspan></text><g  id="v-6056" color="#ffffff" transform="matrix(1,0,0,1,222.5,268)" style="fill: rgb(255, 255, 255);" display="none"><g ></g><g ></g><g ></g><g ></g></g><image  id="v-6057"></image></g></g><!--z-index:43--><g   id="j_469" ><path  stroke="#707070" d="M 2095 455 L 1420 815" id="v-6073" stroke-width="2" stroke-dasharray="30 30" fill="none" style="opacity: 1;"></path><path  fill="black" stroke="black" d="M 0 0 0 0" transform="matrix(-0.8823528789936014,0.47058835188697895,-0.47058835188697895,-0.8823528789936014,2095,455)"></path><path  fill="#707070" stroke="#707070" d="M 20 0 L 0 10 L 20 20 z" id="v-6075" transform="matrix(0.8823530043188289,-0.4705881169021767,0.4705881169021767,0.8823530043188289,1415.2940751159151,806.1764795438024)" style="opacity: 1;"></path><path  d="M 2095 455 L 1420 815" id="v-6074" fill="none" style="cursor: auto; pointer-events: visiblepainted;"></path><g ><g id="v-6064"  label-idx="0" cursor="move" transform="matrix(1,0,0,1,1757.5,635)" style="cursor: default; opacity: 1;"><rect joint-selector="rect" id="v-6068" fill="#ffffff" rx="3" ry="3" pointer-events="none" width="202.02511596679688" height="29.875536918640137" transform="matrix(1,0,0,1,-99.3,-14.9)"></rect><text joint-selector="text" id="v-6067" font-size="24px" xml:space="preserve" y="0.8em" fill="#707070" text-anchor="middle" pointer-events="none" font-family="Open Sans" font-weight="normal" transform="matrix(1,0,0,1,0,-10.2)"><tspan dy="0" >Makes API calls to</tspan></text></g><g id="v-6065"  label-idx="1" cursor="move" transform="matrix(1,0,0,1,1757.5,661.4000244140625)" style="cursor: default; opacity: 1;"><rect joint-selector="rect" id="v-6070" fill="#ffffff" rx="3" ry="3" pointer-events="none" width="114.27922058105469" height="23.900429725646973" transform="matrix(1,0,0,1,-59.9,-11.9)"></rect><text joint-selector="text" id="v-6069" font-size="17px" xml:space="preserve" y="0.8em" fill="#707070" text-anchor="middle" pointer-events="none" font-family="Open Sans" font-weight="normal" transform="matrix(1,0,0,1,0,-7.6)"><tspan dy="0" >[JSON/HTTPS]</tspan></text></g><g id="v-6066"  label-idx="2" cursor="move" transform="matrix(1,0,0,1,1747.5,669.7999877929688)" style="cursor: default; opacity: 1;"><rect joint-selector="rect" id="v-6072" fill="#ffffff" rx="3" ry="3"  width="0" height="0" transform="matrix(1,0,0,1,0,0)" display="none"></rect><text joint-selector="text" id="v-6071" fill="#000000" font-size="14" text-anchor="middle" pointer-events="none"></text></g></g><g  display="none" style="display: none;"></g><g  id="v-6077" display="none"><g  id="v-6062"><path  end="source" d="M 26 0 L 0 13 L 26 26 z"></path></g><g  id="v-6063"><path  end="target" d="M 26 0 L 0 13 L 26 26 z"></path></g></g><g  id="v-6076" display="none"><g  id="v-6061" transform="translate(2059.705882352941, 473.8235294117647) "><g  event="remove"><circle r="11"></circle><path transform="scale(.8) translate(-16, -16)" d="M24.778,21.419 19.276,15.917 24.777,10.415 21.949,7.585 16.447,13.087 10.945,7.585 8.117,10.415 13.618,15.917 8.116,21.419 10.946,24.248 16.447,18.746 21.948,24.248z"></path><title>Remove link.</title></g><g  event="link:options"><circle r="11" transform="translate(25)"></circle><path fill="white" transform="scale(.55) translate(29, -16)" d="M31.229,17.736c0.064-0.571,0.104-1.148,0.104-1.736s-0.04-1.166-0.104-1.737l-4.377-1.557c-0.218-0.716-0.504-1.401-0.851-2.05l1.993-4.192c-0.725-0.91-1.549-1.734-2.458-2.459l-4.193,1.994c-0.647-0.347-1.334-0.632-2.049-0.849l-1.558-4.378C17.165,0.708,16.588,0.667,16,0.667s-1.166,0.041-1.737,0.105L12.707,5.15c-0.716,0.217-1.401,0.502-2.05,0.849L6.464,4.005C5.554,4.73,4.73,5.554,4.005,6.464l1.994,4.192c-0.347,0.648-0.632,1.334-0.849,2.05l-4.378,1.557C0.708,14.834,0.667,15.412,0.667,16s0.041,1.165,0.105,1.736l4.378,1.558c0.217,0.715,0.502,1.401,0.849,2.049l-1.994,4.193c0.725,0.909,1.549,1.733,2.459,2.458l4.192-1.993c0.648,0.347,1.334,0.633,2.05,0.851l1.557,4.377c0.571,0.064,1.148,0.104,1.737,0.104c0.588,0,1.165-0.04,1.736-0.104l1.558-4.377c0.715-0.218,1.399-0.504,2.049-0.851l4.193,1.993c0.909-0.725,1.733-1.549,2.458-2.458l-1.993-4.193c0.347-0.647,0.633-1.334,0.851-2.049L31.229,17.736zM16,20.871c-2.69,0-4.872-2.182-4.872-4.871c0-2.69,2.182-4.872,4.872-4.872c2.689,0,4.871,2.182,4.871,4.872C20.871,18.689,18.689,20.871,16,20.871z"></path><title>Link options.</title></g></g></g></g><!--z-index:44--><g   id="j_470" ><path  stroke="#707070" d="M 2226 485 L 2039 785" id="v-6093" stroke-width="2" stroke-dasharray="30 30" fill="none" style="opacity: 1;"></path><path  fill="black" stroke="black" d="M 0 0 0 0" transform="matrix(-0.5299989865422612,0.8479982749181605,-0.8479982749181605,-0.5299989865422612,2226.25,485)"></path><path  fill="#707070" stroke="#707070" d="M 20 0 L 0 10 L 20 20 z" id="v-6095" transform="matrix(0.5299987607066415,-0.8479984160653982,0.8479984160653982,0.5299987607066415,2030.270077060405,779.7000160848377)" style="opacity: 1;"></path><path  d="M 2226 485 L 2039 785" id="v-6094" fill="none" style="cursor: auto; pointer-events: visiblepainted;"></path><g ><g id="v-6084"  label-idx="0" cursor="move" transform="matrix(1,0,0,1,2132.5,635)" style="cursor: default; opacity: 1;"><rect joint-selector="rect" id="v-6088" fill="#ffffff" rx="3" ry="3" pointer-events="none" width="202.02511596679688" height="29.875536918640137" transform="matrix(1,0,0,1,-99.3,-14.9)"></rect><text joint-selector="text" id="v-6087" font-size="24px" xml:space="preserve" y="0.8em" fill="#707070" text-anchor="middle" pointer-events="none" font-family="Open Sans" font-weight="normal" transform="matrix(1,0,0,1,0,-10.2)"><tspan dy="0" >Makes API calls to</tspan></text></g><g id="v-6085"  label-idx="1" cursor="move" transform="matrix(1,0,0,1,2132.5,661.4000244140625)" style="cursor: default; opacity: 1;"><rect joint-selector="rect" id="v-6090" fill="#ffffff" rx="3" ry="3" pointer-events="none" width="114.27922058105469" height="23.900429725646973" transform="matrix(1,0,0,1,-59.9,-11.9)"></rect><text joint-selector="text" id="v-6089" font-size="17px" xml:space="preserve" y="0.8em" fill="#707070" text-anchor="middle" pointer-events="none" font-family="Open Sans" font-weight="normal" transform="matrix(1,0,0,1,0,-7.6)"><tspan dy="0" >[JSON/HTTPS]</tspan></text></g><g id="v-6086"  label-idx="2" cursor="move" transform="matrix(1,0,0,1,2122.5,669.7999877929688)" style="cursor: default; opacity: 1;"><rect joint-selector="rect" id="v-6092" fill="#ffffff" rx="3" ry="3"  width="0" height="0" transform="matrix(1,0,0,1,0,0)" display="none"></rect><text joint-selector="text" id="v-6091" fill="#000000" font-size="14" text-anchor="middle" pointer-events="none"></text></g></g><g  display="none" style="display: none;"></g><g  id="v-6097" display="none"><g  id="v-6082"><path  end="source" d="M 26 0 L 0 13 L 26 26 z"></path></g><g  id="v-6083"><path  end="target" d="M 26 0 L 0 13 L 26 26 z"></path></g></g><g  id="v-6096" display="none"><g  id="v-6081" transform="translate(2204.8407411961143, 518.9453349794958) "><g  event="remove"><circle r="11"></circle><path transform="scale(.8) translate(-16, -16)" d="M24.778,21.419 19.276,15.917 24.777,10.415 21.949,7.585 16.447,13.087 10.945,7.585 8.117,10.415 13.618,15.917 8.116,21.419 10.946,24.248 16.447,18.746 21.948,24.248z"></path><title>Remove link.</title></g><g  event="link:options"><circle r="11" transform="translate(25)"></circle><path fill="white" transform="scale(.55) translate(29, -16)" d="M31.229,17.736c0.064-0.571,0.104-1.148,0.104-1.736s-0.04-1.166-0.104-1.737l-4.377-1.557c-0.218-0.716-0.504-1.401-0.851-2.05l1.993-4.192c-0.725-0.91-1.549-1.734-2.458-2.459l-4.193,1.994c-0.647-0.347-1.334-0.632-2.049-0.849l-1.558-4.378C17.165,0.708,16.588,0.667,16,0.667s-1.166,0.041-1.737,0.105L12.707,5.15c-0.716,0.217-1.401,0.502-2.05,0.849L6.464,4.005C5.554,4.73,4.73,5.554,4.005,6.464l1.994,4.192c-0.347,0.648-0.632,1.334-0.849,2.05l-4.378,1.557C0.708,14.834,0.667,15.412,0.667,16s0.041,1.165,0.105,1.736l4.378,1.558c0.217,0.715,0.502,1.401,0.849,2.049l-1.994,4.193c0.725,0.909,1.549,1.733,2.459,2.458l4.192-1.993c0.648,0.347,1.334,0.633,2.05,0.851l1.557,4.377c0.571,0.064,1.148,0.104,1.737,0.104c0.588,0,1.165-0.04,1.736-0.104l1.558-4.377c0.715-0.218,1.399-0.504,2.049-0.851l4.193,1.993c0.909-0.725,1.733-1.549,2.458-2.458l-1.993-4.193c0.347-0.647,0.633-1.334,0.851-2.049L31.229,17.736zM16,20.871c-2.69,0-4.872-2.182-4.872-4.871c0-2.69,2.182-4.872,4.872-4.872c2.689,0,4.871,2.182,4.871,4.872C20.871,18.689,18.689,20.871,16,20.871z"></path><title>Link options.</title></g></g></g></g><!--z-index:45--><g   id="j_471" ><path  stroke="#707070" d="M 2414 485 L 2601 785" id="v-6113" stroke-width="2" stroke-dasharray="30 30" fill="none" style="opacity: 1;"></path><path  fill="black" stroke="black" d="M 0 0 0 0" transform="matrix(0.52999893008336,0.8479983102049754,-0.8479983102049754,0.52999893008336,2413.75,485)"></path><path  fill="#707070" stroke="#707070" d="M 20 0 L 0 10 L 20 20 z" id="v-6115" transform="matrix(-0.5299989865422614,-0.8479982749181603,0.8479982749181603,-0.5299989865422614,2592.7699582881164,790.299992145854)" style="opacity: 1;"></path><path  d="M 2414 485 L 2601 785" id="v-6114" fill="none" style="cursor: auto; pointer-events: visiblepainted;"></path><g ><g id="v-6104"  label-idx="0" cursor="move" transform="matrix(1,0,0,1,2507.5,635)" style="cursor: default; opacity: 1;"><rect joint-selector="rect" id="v-6108" fill="#ffffff" rx="3" ry="3" pointer-events="none" width="202.02511596679688" height="29.875536918640137" transform="matrix(1,0,0,1,-99.3,-14.9)"></rect><text joint-selector="text" id="v-6107" font-size="24px" xml:space="preserve" y="0.8em" fill="#707070" text-anchor="middle" pointer-events="none" font-family="Open Sans" font-weight="normal" transform="matrix(1,0,0,1,0,-10.2)"><tspan dy="0" >Makes API calls to</tspan></text></g><g id="v-6105"  label-idx="1" cursor="move" transform="matrix(1,0,0,1,2507.5,661.4000244140625)" style="cursor: default; opacity: 1;"><rect joint-selector="rect" id="v-6110" fill="#ffffff" rx="3" ry="3" pointer-events="none" width="114.27922058105469" height="23.900429725646973" transform="matrix(1,0,0,1,-59.9,-11.9)"></rect><text joint-selector="text" id="v-6109" font-size="17px" xml:space="preserve" y="0.8em" fill="#707070" text-anchor="middle" pointer-events="none" font-family="Open Sans" font-weight="normal" transform="matrix(1,0,0,1,0,-7.6)"><tspan dy="0" >[JSON/HTTPS]</tspan></text></g><g id="v-6106"  label-idx="2" cursor="move" transform="matrix(1,0,0,1,2497.5,669.7999877929688)" style="cursor: default; opacity: 1;"><rect joint-selector="rect" id="v-6112" fill="#ffffff" rx="3" ry="3"  width="0" height="0" transform="matrix(1,0,0,1,0,0)" display="none"></rect><text joint-selector="text" id="v-6111" fill="#000000" font-size="14" text-anchor="middle" pointer-events="none"></text></g></g><g  display="none" style="display: none;"></g><g  id="v-6117" display="none"><g  id="v-6102"><path  end="source" d="M 26 0 L 0 13 L 26 26 z"></path></g><g  id="v-6103"><path  end="target" d="M 26 0 L 0 13 L 26 26 z"></path></g></g><g  id="v-6116" display="none"><g  id="v-6101" transform="translate(2435.1592588038857, 518.9453349794958) "><g  event="remove"><circle r="11"></circle><path transform="scale(.8) translate(-16, -16)" d="M24.778,21.419 19.276,15.917 24.777,10.415 21.949,7.585 16.447,13.087 10.945,7.585 8.117,10.415 13.618,15.917 8.116,21.419 10.946,24.248 16.447,18.746 21.948,24.248z"></path><title>Remove link.</title></g><g  event="link:options"><circle r="11" transform="translate(25)"></circle><path fill="white" transform="scale(.55) translate(29, -16)" d="M31.229,17.736c0.064-0.571,0.104-1.148,0.104-1.736s-0.04-1.166-0.104-1.737l-4.377-1.557c-0.218-0.716-0.504-1.401-0.851-2.05l1.993-4.192c-0.725-0.91-1.549-1.734-2.458-2.459l-4.193,1.994c-0.647-0.347-1.334-0.632-2.049-0.849l-1.558-4.378C17.165,0.708,16.588,0.667,16,0.667s-1.166,0.041-1.737,0.105L12.707,5.15c-0.716,0.217-1.401,0.502-2.05,0.849L6.464,4.005C5.554,4.73,4.73,5.554,4.005,6.464l1.994,4.192c-0.347,0.648-0.632,1.334-0.849,2.05l-4.378,1.557C0.708,14.834,0.667,15.412,0.667,16s0.041,1.165,0.105,1.736l4.378,1.558c0.217,0.715,0.502,1.401,0.849,2.049l-1.994,4.193c0.725,0.909,1.549,1.733,2.459,2.458l4.192-1.993c0.648,0.347,1.334,0.633,2.05,0.851l1.557,4.377c0.571,0.064,1.148,0.104,1.737,0.104c0.588,0,1.165-0.04,1.736-0.104l1.558-4.377c0.715-0.218,1.399-0.504,2.049-0.851l4.193,1.993c0.909-0.725,1.733-1.549,2.458-2.458l-1.993-4.193c0.347-0.647,0.633-1.334,0.851-2.049L31.229,17.736zM16,20.871c-2.69,0-4.872-2.182-4.872-4.871c0-2.69,2.182-4.872,4.872-4.872c2.689,0,4.871,2.182,4.871,4.872C20.871,18.689,18.689,20.871,16,20.871z"></path><title>Link options.</title></g></g></g></g><!--z-index:46--><g   id="j_472" ><path  stroke="#707070" d="M 1008 1085 L 633 1385" id="v-6130" stroke-width="2" stroke-dasharray="30 30" fill="none" style="opacity: 1;"></path><path  fill="black" stroke="black" d="M 0 0 0 0" transform="matrix(-0.7808688416748546,0.6246950072646418,-0.6246950072646418,-0.7808688416748546,1007.5,1085)"></path><path  fill="#707070" stroke="#707070" d="M 20 0 L 0 10 L 20 20 z" id="v-6132" transform="matrix(0.7808686753084834,-0.624695215222571,0.624695215222571,0.7808686753084834,626.2530769150021,1377.1913171569536)" style="opacity: 1;"></path><path  d="M 1008 1085 L 633 1385" id="v-6131" fill="none" style="cursor: auto; pointer-events: visiblepainted;"></path><g ><g id="v-6124"  label-idx="0" cursor="move" transform="matrix(1,0,0,1,820.5,1235)" style="cursor: default; opacity: 1;"><rect joint-selector="rect" id="v-6127" fill="#ffffff" rx="3" ry="3" pointer-events="none" width="180.46327209472656" height="58.6755428314209" transform="matrix(1,0,0,1,-88.6,-29.3)"></rect><text joint-selector="text" id="v-6126" font-size="24px" xml:space="preserve" y="0.8em" fill="#707070" text-anchor="middle" pointer-events="none" font-family="Open Sans" font-weight="normal" transform="matrix(1,0,0,1,0,-24.6)"><tspan dy="0" >Reads from and</tspan><tspan dy="1.2em" x="0" >writes to</tspan></text></g><g id="v-6125"  label-idx="1" cursor="move" transform="matrix(1,0,0,1,810.5,1275.800048828125)" style="cursor: default; opacity: 1;"><rect joint-selector="rect" id="v-6129" fill="#ffffff" rx="3" ry="3"  width="0" height="0" transform="matrix(1,0,0,1,0,0)" display="none"></rect><text joint-selector="text" id="v-6128" fill="#000000" font-size="14" text-anchor="middle" pointer-events="none"></text></g></g><g  display="none" style="display: none;"></g><g  id="v-6134" display="none"><g  id="v-6122"><path  end="source" d="M 26 0 L 0 13 L 26 26 z"></path></g><g  id="v-6123"><path  end="target" d="M 26 0 L 0 13 L 26 26 z"></path></g></g><g  id="v-6133" display="none"><g  id="v-6121" transform="translate(976.7652476222788, 1109.9878019021771) "><g  event="remove"><circle r="11"></circle><path transform="scale(.8) translate(-16, -16)" d="M24.778,21.419 19.276,15.917 24.777,10.415 21.949,7.585 16.447,13.087 10.945,7.585 8.117,10.415 13.618,15.917 8.116,21.419 10.946,24.248 16.447,18.746 21.948,24.248z"></path><title>Remove link.</title></g><g  event="link:options"><circle r="11" transform="translate(25)"></circle><path fill="white" transform="scale(.55) translate(29, -16)" d="M31.229,17.736c0.064-0.571,0.104-1.148,0.104-1.736s-0.04-1.166-0.104-1.737l-4.377-1.557c-0.218-0.716-0.504-1.401-0.851-2.05l1.993-4.192c-0.725-0.91-1.549-1.734-2.458-2.459l-4.193,1.994c-0.647-0.347-1.334-0.632-2.049-0.849l-1.558-4.378C17.165,0.708,16.588,0.667,16,0.667s-1.166,0.041-1.737,0.105L12.707,5.15c-0.716,0.217-1.401,0.502-2.05,0.849L6.464,4.005C5.554,4.73,4.73,5.554,4.005,6.464l1.994,4.192c-0.347,0.648-0.632,1.334-0.849,2.05l-4.378,1.557C0.708,14.834,0.667,15.412,0.667,16s0.041,1.165,0.105,1.736l4.378,1.558c0.217,0.715,0.502,1.401,0.849,2.049l-1.994,4.193c0.725,0.909,1.549,1.733,2.459,2.458l4.192-1.993c0.648,0.347,1.334,0.633,2.05,0.851l1.557,4.377c0.571,0.064,1.148,0.104,1.737,0.104c0.588,0,1.165-0.04,1.736-0.104l1.558-4.377c0.715-0.218,1.399-0.504,2.049-0.851l4.193,1.993c0.909-0.725,1.733-1.549,2.458-2.458l-1.993-4.193c0.347-0.647,0.633-1.334,0.851-2.049L31.229,17.736zM16,20.871c-2.69,0-4.872-2.182-4.872-4.871c0-2.69,2.182-4.872,4.872-4.872c2.689,0,4.871,2.182,4.871,4.872C20.871,18.689,18.689,20.871,16,20.871z"></path><title>Link options.</title></g></g></g></g><!--z-index:47--><g   id="j_473" ><path  stroke="#707070" d="M 2695 1085 L 2695 1385" id="v-6147" stroke-width="2" stroke-dasharray="30 30" fill="none" style="opacity: 1;"></path><path  fill="black" stroke="black" d="M 0 0 0 0" transform="matrix(6.123233995736766e-17,1,-1,6.123233995736766e-17,2695,1085)"></path><path  fill="#707070" stroke="#707070" d="M 20 0 L 0 10 L 20 20 z" id="v-6149" transform="matrix(-1.8369701987210297e-16,-1,1,-1.8369701987210297e-16,2685.0000000000005,1385)" style="opacity: 1;"></path><path  d="M 2695 1085 L 2695 1385" id="v-6148" fill="none" style="cursor: auto; pointer-events: visiblepainted;"></path><g ><g id="v-6141"  label-idx="0" cursor="move" transform="matrix(1,0,0,1,2695,1235)" style="cursor: default; opacity: 1;"><rect joint-selector="rect" id="v-6144" fill="#ffffff" rx="3" ry="3" pointer-events="none" width="180.46327209472656" height="58.6755428314209" transform="matrix(1,0,0,1,-88.6,-29.3)"></rect><text joint-selector="text" id="v-6143" font-size="24px" xml:space="preserve" y="0.8em" fill="#707070" text-anchor="middle" pointer-events="none" font-family="Open Sans" font-weight="normal" transform="matrix(1,0,0,1,0,-24.6)"><tspan dy="0" >Reads from and</tspan><tspan dy="1.2em" x="0" >writes to</tspan></text></g><g id="v-6142"  label-idx="1" cursor="move" transform="matrix(1,0,0,1,2685,1275.800048828125)" style="cursor: default; opacity: 1;"><rect joint-selector="rect" id="v-6146" fill="#ffffff" rx="3" ry="3"  width="0" height="0" transform="matrix(1,0,0,1,0,0)" display="none"></rect><text joint-selector="text" id="v-6145" fill="#000000" font-size="14" text-anchor="middle" pointer-events="none"></text></g></g><g  display="none" style="display: none;"></g><g  id="v-6151" display="none"><g  id="v-6139"><path  end="source" d="M 26 0 L 0 13 L 26 26 z"></path></g><g  id="v-6140"><path  end="target" d="M 26 0 L 0 13 L 26 26 z"></path></g></g><g  id="v-6150" display="none"><g  id="v-6138" transform="translate(2695.0000000000005, 1125) "><g  event="remove"><circle r="11"></circle><path transform="scale(.8) translate(-16, -16)" d="M24.778,21.419 19.276,15.917 24.777,10.415 21.949,7.585 16.447,13.087 10.945,7.585 8.117,10.415 13.618,15.917 8.116,21.419 10.946,24.248 16.447,18.746 21.948,24.248z"></path><title>Remove link.</title></g><g  event="link:options"><circle r="11" transform="translate(25)"></circle><path fill="white" transform="scale(.55) translate(29, -16)" d="M31.229,17.736c0.064-0.571,0.104-1.148,0.104-1.736s-0.04-1.166-0.104-1.737l-4.377-1.557c-0.218-0.716-0.504-1.401-0.851-2.05l1.993-4.192c-0.725-0.91-1.549-1.734-2.458-2.459l-4.193,1.994c-0.647-0.347-1.334-0.632-2.049-0.849l-1.558-4.378C17.165,0.708,16.588,0.667,16,0.667s-1.166,0.041-1.737,0.105L12.707,5.15c-0.716,0.217-1.401,0.502-2.05,0.849L6.464,4.005C5.554,4.73,4.73,5.554,4.005,6.464l1.994,4.192c-0.347,0.648-0.632,1.334-0.849,2.05l-4.378,1.557C0.708,14.834,0.667,15.412,0.667,16s0.041,1.165,0.105,1.736l4.378,1.558c0.217,0.715,0.502,1.401,0.849,2.049l-1.994,4.193c0.725,0.909,1.549,1.733,2.459,2.458l4.192-1.993c0.648,0.347,1.334,0.633,2.05,0.851l1.557,4.377c0.571,0.064,1.148,0.104,1.737,0.104c0.588,0,1.165-0.04,1.736-0.104l1.558-4.377c0.715-0.218,1.399-0.504,2.049-0.851l4.193,1.993c0.909-0.725,1.733-1.549,2.458-2.458l-1.993-4.193c0.347-0.647,0.633-1.334,0.851-2.049L31.229,17.736zM16,20.871c-2.69,0-4.872-2.182-4.872-4.871c0-2.69,2.182-4.872,4.872-4.872c2.689,0,4.871,2.182,4.871,4.872C20.871,18.689,18.689,20.871,16,20.871z"></path><title>Link options.</title></g></g></g></g><!--z-index:48--><g   id="j_474" ><path  stroke="#707070" d="M 1945 1085 L 1945 1385" id="v-6164" stroke-width="2" stroke-dasharray="30 30" fill="none" style="opacity: 1;"></path><path  fill="black" stroke="black" d="M 0 0 0 0" transform="matrix(6.123233995736766e-17,1,-1,6.123233995736766e-17,1945,1085)"></path><path  fill="#707070" stroke="#707070" d="M 20 0 L 0 10 L 20 20 z" id="v-6166" transform="matrix(-1.8369701987210297e-16,-1,1,-1.8369701987210297e-16,1935.0000000000002,1385)" style="opacity: 1;"></path><path  d="M 1945 1085 L 1945 1385" id="v-6165" fill="none" style="cursor: auto; pointer-events: visiblepainted;"></path><g ><g id="v-6158"  label-idx="0" cursor="move" transform="matrix(1,0,0,1,1945,1235)" style="cursor: default; opacity: 1;"><rect joint-selector="rect" id="v-6161" fill="#ffffff" rx="3" ry="3" pointer-events="none" width="180.46327209472656" height="58.6755428314209" transform="matrix(1,0,0,1,-88.6,-29.3)"></rect><text joint-selector="text" id="v-6160" font-size="24px" xml:space="preserve" y="0.8em" fill="#707070" text-anchor="middle" pointer-events="none" font-family="Open Sans" font-weight="normal" transform="matrix(1,0,0,1,0,-24.6)"><tspan dy="0" >Reads from and</tspan><tspan dy="1.2em" x="0" >writes to</tspan></text></g><g id="v-6159"  label-idx="1" cursor="move" transform="matrix(1,0,0,1,1935,1275.800048828125)" style="cursor: default; opacity: 1;"><rect joint-selector="rect" id="v-6163" fill="#ffffff" rx="3" ry="3"  width="0" height="0" transform="matrix(1,0,0,1,0,0)" display="none"></rect><text joint-selector="text" id="v-6162" fill="#000000" font-size="14" text-anchor="middle" pointer-events="none"></text></g></g><g  display="none" style="display: none;"></g><g  id="v-6168" display="none"><g  id="v-6156"><path  end="source" d="M 26 0 L 0 13 L 26 26 z"></path></g><g  id="v-6157"><path  end="target" d="M 26 0 L 0 13 L 26 26 z"></path></g></g><g  id="v-6167" display="none"><g  id="v-6155" transform="translate(1945, 1125) "><g  event="remove"><circle r="11"></circle><path transform="scale(.8) translate(-16, -16)" d="M24.778,21.419 19.276,15.917 24.777,10.415 21.949,7.585 16.447,13.087 10.945,7.585 8.117,10.415 13.618,15.917 8.116,21.419 10.946,24.248 16.447,18.746 21.948,24.248z"></path><title>Remove link.</title></g><g  event="link:options"><circle r="11" transform="translate(25)"></circle><path fill="white" transform="scale(.55) translate(29, -16)" d="M31.229,17.736c0.064-0.571,0.104-1.148,0.104-1.736s-0.04-1.166-0.104-1.737l-4.377-1.557c-0.218-0.716-0.504-1.401-0.851-2.05l1.993-4.192c-0.725-0.91-1.549-1.734-2.458-2.459l-4.193,1.994c-0.647-0.347-1.334-0.632-2.049-0.849l-1.558-4.378C17.165,0.708,16.588,0.667,16,0.667s-1.166,0.041-1.737,0.105L12.707,5.15c-0.716,0.217-1.401,0.502-2.05,0.849L6.464,4.005C5.554,4.73,4.73,5.554,4.005,6.464l1.994,4.192c-0.347,0.648-0.632,1.334-0.849,2.05l-4.378,1.557C0.708,14.834,0.667,15.412,0.667,16s0.041,1.165,0.105,1.736l4.378,1.558c0.217,0.715,0.502,1.401,0.849,2.049l-1.994,4.193c0.725,0.909,1.549,1.733,2.459,2.458l4.192-1.993c0.648,0.347,1.334,0.633,2.05,0.851l1.557,4.377c0.571,0.064,1.148,0.104,1.737,0.104c0.588,0,1.165-0.04,1.736-0.104l1.558-4.377c0.715-0.218,1.399-0.504,2.049-0.851l4.193,1.993c0.909-0.725,1.733-1.549,2.458-2.458l-1.993-4.193c0.347-0.647,0.633-1.334,0.851-2.049L31.229,17.736zM16,20.871c-2.69,0-4.872-2.182-4.872-4.871c0-2.69,2.182-4.872,4.872-4.872c2.689,0,4.871,2.182,4.871,4.872C20.871,18.689,18.689,20.871,16,20.871z"></path><title>Link options.</title></g></g></g></g><!--z-index:49--><g   id="j_475" ><path  stroke="#707070" d="M 2470 1025 L 1420 1445" id="v-6181" stroke-width="2" stroke-dasharray="30 30" fill="none" style="opacity: 1;"></path><path  fill="black" stroke="black" d="M 0 0 0 0" transform="matrix(-0.928476707906966,0.37139063379983406,-0.37139063379983406,-0.928476707906966,2470,1025)"></path><path  fill="#707070" stroke="#707070" d="M 20 0 L 0 10 L 20 20 z" id="v-6183" transform="matrix(0.9284766089996245,-0.3713908810681253,0.3713908810681253,0.9284766089996245,1416.2861151383852,1435.7152755331851)" style="opacity: 1;"></path><path  d="M 2470 1025 L 1420 1445" id="v-6182" fill="none" style="cursor: auto; pointer-events: visiblepainted;"></path><g ><g id="v-6175"  label-idx="0" cursor="move" transform="matrix(1,0,0,1,1945,1235)" style="cursor: default; opacity: 1;"><rect joint-selector="rect" id="v-6178" fill="#ffffff" rx="3" ry="3" pointer-events="none" width="177.3426971435547" height="58.6755428314209" transform="matrix(1,0,0,1,-87.6,-29.3)"></rect><text joint-selector="text" id="v-6177" font-size="24px" xml:space="preserve" y="0.8em" fill="#707070" text-anchor="middle" pointer-events="none" font-family="Open Sans" font-weight="normal" transform="matrix(1,0,0,1,0,-24.6)"><tspan dy="0" >Publishes order</tspan><tspan dy="1.2em" x="0" >events to</tspan></text></g><g id="v-6176"  label-idx="1" cursor="move" transform="matrix(1,0,0,1,1935,1275.800048828125)" style="cursor: default; opacity: 1;"><rect joint-selector="rect" id="v-6180" fill="#ffffff" rx="3" ry="3"  width="0" height="0" transform="matrix(1,0,0,1,0,0)" display="none"></rect><text joint-selector="text" id="v-6179" fill="#000000" font-size="14" text-anchor="middle" pointer-events="none"></text></g></g><g  display="none" style="display: none;"></g><g  id="v-6185" display="none"><g  id="v-6173"><path  end="source" d="M 26 0 L 0 13 L 26 26 z"></path></g><g  id="v-6174"><path  end="target" d="M 26 0 L 0 13 L 26 26 z"></path></g></g><g  id="v-6184" display="none"><g  id="v-6172" transform="translate(2432.8609323645896, 1039.8556270541642) "><g  event="remove"><circle r="11"></circle><path transform="scale(.8) translate(-16, -16)" d="M24.778,21.419 19.276,15.917 24.777,10.415 21.949,7.585 16.447,13.087 10.945,7.585 8.117,10.415 13.618,15.917 8.116,21.419 10.946,24.248 16.447,18.746 21.948,24.248z"></path><title>Remove link.</title></g><g  event="link:options"><circle r="11" transform="translate(25)"></circle><path fill="white" transform="scale(.55) translate(29, -16)" d="M31.229,17.736c0.064-0.571,0.104-1.148,0.104-1.736s-0.04-1.166-0.104-1.737l-4.377-1.557c-0.218-0.716-0.504-1.401-0.851-2.05l1.993-4.192c-0.725-0.91-1.549-1.734-2.458-2.459l-4.193,1.994c-0.647-0.347-1.334-0.632-2.049-0.849l-1.558-4.378C17.165,0.708,16.588,0.667,16,0.667s-1.166,0.041-1.737,0.105L12.707,5.15c-0.716,0.217-1.401,0.502-2.05,0.849L6.464,4.005C5.554,4.73,4.73,5.554,4.005,6.464l1.994,4.192c-0.347,0.648-0.632,1.334-0.849,2.05l-4.378,1.557C0.708,14.834,0.667,15.412,0.667,16s0.041,1.165,0.105,1.736l4.378,1.558c0.217,0.715,0.502,1.401,0.849,2.049l-1.994,4.193c0.725,0.909,1.549,1.733,2.459,2.458l4.192-1.993c0.648,0.347,1.334,0.633,2.05,0.851l1.557,4.377c0.571,0.064,1.148,0.104,1.737,0.104c0.588,0,1.165-0.04,1.736-0.104l1.558-4.377c0.715-0.218,1.399-0.504,2.049-0.851l4.193,1.993c0.909-0.725,1.733-1.549,2.458-2.458l-1.993-4.193c0.347-0.647,0.633-1.334,0.851-2.049L31.229,17.736zM16,20.871c-2.69,0-4.872-2.182-4.872-4.871c0-2.69,2.182-4.872,4.872-4.872c2.689,0,4.871,2.182,4.871,4.872C20.871,18.689,18.689,20.871,16,20.871z"></path><title>Link options.</title></g></g></g></g><!--z-index:50--><g   id="j_476" ><path  stroke="#707070" d="M 1758 1085 L 1383 1385" id="v-6198" stroke-width="2" stroke-dasharray="30 30" fill="none" style="opacity: 1;"></path><path  fill="black" stroke="black" d="M 0 0 0 0" transform="matrix(-0.7808688416748546,0.6246950072646418,-0.6246950072646418,-0.7808688416748546,1757.5,1085)"></path><path  fill="#707070" stroke="#707070" d="M 20 0 L 0 10 L 20 20 z" id="v-6200" transform="matrix(0.7808686753084834,-0.624695215222571,0.624695215222571,0.7808686753084834,1376.253076915002,1377.1913171569536)" style="opacity: 1;"></path><path  d="M 1758 1085 L 1383 1385" id="v-6199" fill="none" style="cursor: auto; pointer-events: visiblepainted;"></path><g ><g id="v-6192"  label-idx="0" cursor="move" transform="matrix(1,0,0,1,1570.5,1235)" style="cursor: default; opacity: 1;"><rect joint-selector="rect" id="v-6195" fill="#ffffff" rx="3" ry="3" pointer-events="none" width="159.42457580566406" height="87.47554397583008" transform="matrix(1,0,0,1,-80.9,-43.7)"></rect><text joint-selector="text" id="v-6194" font-size="24px" xml:space="preserve" y="0.8em" fill="#707070" text-anchor="middle" pointer-events="none" font-family="Open Sans" font-weight="normal" transform="matrix(1,0,0,1,0,-39)"><tspan dy="0" >Subscribes to</tspan><tspan dy="1.2em" x="0" >order events</tspan><tspan dy="1.2em" x="0" >from</tspan></text></g><g id="v-6193"  label-idx="1" cursor="move" transform="matrix(1,0,0,1,1560.5,1290.199951171875)" style="cursor: default; opacity: 1;"><rect joint-selector="rect" id="v-6197" fill="#ffffff" rx="3" ry="3"  width="0" height="0" transform="matrix(1,0,0,1,0,0)" display="none"></rect><text joint-selector="text" id="v-6196" fill="#000000" font-size="14" text-anchor="middle" pointer-events="none"></text></g></g><g  display="none" style="display: none;"></g><g  id="v-6202" display="none"><g  id="v-6190"><path  end="source" d="M 26 0 L 0 13 L 26 26 z"></path></g><g  id="v-6191"><path  end="target" d="M 26 0 L 0 13 L 26 26 z"></path></g></g><g  id="v-6201" display="none"><g  id="v-6189" transform="translate(1726.7652476222788, 1109.9878019021771) "><g  event="remove"><circle r="11"></circle><path transform="scale(.8) translate(-16, -16)" d="M24.778,21.419 19.276,15.917 24.777,10.415 21.949,7.585 16.447,13.087 10.945,7.585 8.117,10.415 13.618,15.917 8.116,21.419 10.946,24.248 16.447,18.746 21.948,24.248z"></path><title>Remove link.</title></g><g  event="link:options"><circle r="11" transform="translate(25)"></circle><path fill="white" transform="scale(.55) translate(29, -16)" d="M31.229,17.736c0.064-0.571,0.104-1.148,0.104-1.736s-0.04-1.166-0.104-1.737l-4.377-1.557c-0.218-0.716-0.504-1.401-0.851-2.05l1.993-4.192c-0.725-0.91-1.549-1.734-2.458-2.459l-4.193,1.994c-0.647-0.347-1.334-0.632-2.049-0.849l-1.558-4.378C17.165,0.708,16.588,0.667,16,0.667s-1.166,0.041-1.737,0.105L12.707,5.15c-0.716,0.217-1.401,0.502-2.05,0.849L6.464,4.005C5.554,4.73,4.73,5.554,4.005,6.464l1.994,4.192c-0.347,0.648-0.632,1.334-0.849,2.05l-4.378,1.557C0.708,14.834,0.667,15.412,0.667,16s0.041,1.165,0.105,1.736l4.378,1.558c0.217,0.715,0.502,1.401,0.849,2.049l-1.994,4.193c0.725,0.909,1.549,1.733,2.459,2.458l4.192-1.993c0.648,0.347,1.334,0.633,2.05,0.851l1.557,4.377c0.571,0.064,1.148,0.104,1.737,0.104c0.588,0,1.165-0.04,1.736-0.104l1.558-4.377c0.715-0.218,1.399-0.504,2.049-0.851l4.193,1.993c0.909-0.725,1.733-1.549,2.458-2.458l-1.993-4.193c0.347-0.647,0.633-1.334,0.851-2.049L31.229,17.736zM16,20.871c-2.69,0-4.872-2.182-4.872-4.871c0-2.69,2.182-4.872,4.872-4.872c2.689,0,4.871,2.182,4.871,4.872C20.871,18.689,18.689,20.871,16,20.871z"></path><title>Link options.</title></g></g></g></g><!--z-index:51--><g   id="j_477" ><path  stroke="#707070" d="M 1195 1085 L 1195 1385" id="v-6215" stroke-width="2" stroke-dasharray="30 30" fill="none" style="opacity: 1;"></path><path  fill="black" stroke="black" d="M 0 0 0 0" transform="matrix(6.123233995736766e-17,1,-1,6.123233995736766e-17,1195,1085)"></path><path  fill="#707070" stroke="#707070" d="M 20 0 L 0 10 L 20 20 z" id="v-6217" transform="matrix(-1.8369701987210297e-16,-1,1,-1.8369701987210297e-16,1185.0000000000002,1385)" style="opacity: 1;"></path><path  d="M 1195 1085 L 1195 1385" id="v-6216" fill="none" style="cursor: auto; pointer-events: visiblepainted;"></path><g ><g id="v-6209"  label-idx="0" cursor="move" transform="matrix(1,0,0,1,1195,1235)" style="cursor: default; opacity: 1;"><rect joint-selector="rect" id="v-6212" fill="#ffffff" rx="3" ry="3" pointer-events="none" width="164.5905303955078" height="58.6755428314209" transform="matrix(1,0,0,1,-81.2,-29.3)"></rect><text joint-selector="text" id="v-6211" font-size="24px" xml:space="preserve" y="0.8em" fill="#707070" text-anchor="middle" pointer-events="none" font-family="Open Sans" font-weight="normal" transform="matrix(1,0,0,1,0,-24.6)"><tspan dy="0" >Publishes user</tspan><tspan dy="1.2em" x="0" >events to</tspan></text></g><g id="v-6210"  label-idx="1" cursor="move" transform="matrix(1,0,0,1,1185,1275.800048828125)" style="cursor: default; opacity: 1;"><rect joint-selector="rect" id="v-6214" fill="#ffffff" rx="3" ry="3"  width="0" height="0" transform="matrix(1,0,0,1,0,0)" display="none"></rect><text joint-selector="text" id="v-6213" fill="#000000" font-size="14" text-anchor="middle" pointer-events="none"></text></g></g><g  display="none" style="display: none;"></g><g  id="v-6219" display="none"><g  id="v-6207"><path  end="source" d="M 26 0 L 0 13 L 26 26 z"></path></g><g  id="v-6208"><path  end="target" d="M 26 0 L 0 13 L 26 26 z"></path></g></g><g  id="v-6218" display="none"><g  id="v-6206" transform="translate(1195, 1125) "><g  event="remove"><circle r="11"></circle><path transform="scale(.8) translate(-16, -16)" d="M24.778,21.419 19.276,15.917 24.777,10.415 21.949,7.585 16.447,13.087 10.945,7.585 8.117,10.415 13.618,15.917 8.116,21.419 10.946,24.248 16.447,18.746 21.948,24.248z"></path><title>Remove link.</title></g><g  event="link:options"><circle r="11" transform="translate(25)"></circle><path fill="white" transform="scale(.55) translate(29, -16)" d="M31.229,17.736c0.064-0.571,0.104-1.148,0.104-1.736s-0.04-1.166-0.104-1.737l-4.377-1.557c-0.218-0.716-0.504-1.401-0.851-2.05l1.993-4.192c-0.725-0.91-1.549-1.734-2.458-2.459l-4.193,1.994c-0.647-0.347-1.334-0.632-2.049-0.849l-1.558-4.378C17.165,0.708,16.588,0.667,16,0.667s-1.166,0.041-1.737,0.105L12.707,5.15c-0.716,0.217-1.401,0.502-2.05,0.849L6.464,4.005C5.554,4.73,4.73,5.554,4.005,6.464l1.994,4.192c-0.347,0.648-0.632,1.334-0.849,2.05l-4.378,1.557C0.708,14.834,0.667,15.412,0.667,16s0.041,1.165,0.105,1.736l4.378,1.558c0.217,0.715,0.502,1.401,0.849,2.049l-1.994,4.193c0.725,0.909,1.549,1.733,2.459,2.458l4.192-1.993c0.648,0.347,1.334,0.633,2.05,0.851l1.557,4.377c0.571,0.064,1.148,0.104,1.737,0.104c0.588,0,1.165-0.04,1.736-0.104l1.558-4.377c0.715-0.218,1.399-0.504,2.049-0.851l4.193,1.993c0.909-0.725,1.733-1.549,2.458-2.458l-1.993-4.193c0.347-0.647,0.633-1.334,0.851-2.049L31.229,17.736zM16,20.871c-2.69,0-4.872-2.182-4.872-4.871c0-2.69,2.182-4.872,4.872-4.872c2.689,0,4.871,2.182,4.871,4.872C20.871,18.689,18.689,20.871,16,20.871z"></path><title>Link options.</title></g></g></g></g><!--z-index:52--><g   id="j_478" ><path  stroke="#707070" d="M 4357 1993 L 4563 1796 C 4567.666666666666 1791.333333333333 4570 1785.6666666666665 4570 1779 L 4570 1395 C 4570 1388.3333333333333 4567 1383.6666666666665 4561 1381 L 2545 440" id="v-6237" stroke-width="2" stroke-dasharray="30 30" fill="none" style="opacity: 1;"></path><path  fill="black" stroke="black" d="M 0 0 0 0" transform="matrix(0.7218105111111598,-0.6920907354165682,0.6920907354165682,0.7218105111111598,4357,1993.22998046875)"></path><path  fill="#707070" stroke="#707070" d="M 20 0 L 0 10 L 20 20 z" id="v-6239" transform="matrix(0.9061831406688262,0.42288546388777937,-0.42288546388777937,0.9061831406688262,2549.2287908103144,430.9381652727935)" style="opacity: 1;"></path><path  d="M 4357 1993 L 4563 1796 C 4567.666666666666 1791.333333333333 4570 1785.6666666666665 4570 1779 L 4570 1395 C 4570 1388.3333333333333 4567 1383.6666666666665 4561 1381 L 2545 440" id="v-6238" fill="none" style="cursor: auto; pointer-events: visiblepainted;"></path><g ><g id="v-6228"  label-idx="0" cursor="move" transform="matrix(1,0,0,1,3872.72412109375,1059.736328125)" style="cursor: default; opacity: 1;"><rect joint-selector="rect" id="v-6232" fill="#ffffff" rx="3" ry="3" pointer-events="none" width="178.74339294433594" height="87.47554397583008" transform="matrix(1,0,0,1,-92.1,-43.7)"></rect><text joint-selector="text" id="v-6231" font-size="24px" xml:space="preserve" y="0.8em" fill="#707070" text-anchor="middle" pointer-events="none" font-family="Open Sans" font-weight="normal" transform="matrix(1,0,0,1,0,-39)"><tspan dy="0" >Searches trains</tspan><tspan dy="1.2em" x="0" >and seats, buys</tspan><tspan dy="1.2em" x="0" >tickets using</tspan></text></g><g id="v-6229"  label-idx="1" cursor="move" transform="matrix(1,0,0,1,3872.72412109375,1114.936279296875)" style="cursor: default; opacity: 1;"><rect joint-selector="rect" id="v-6234" fill="#ffffff" rx="3" ry="3" pointer-events="none" width="68.21875762939453" height="23.900429725646973" transform="matrix(1,0,0,1,-36.9,-11.9)"></rect><text joint-selector="text" id="v-6233" font-size="17px" xml:space="preserve" y="0.8em" fill="#707070" text-anchor="middle" pointer-events="none" font-family="Open Sans" font-weight="normal" transform="matrix(1,0,0,1,0,-7.6)"><tspan dy="0" >[HTTPS]</tspan></text></g><g id="v-6230"  label-idx="2" cursor="move" transform="matrix(1,0,0,1,3862.72412109375,1123.3363037109375)" style="cursor: default; opacity: 1;"><rect joint-selector="rect" id="v-6236" fill="#ffffff" rx="3" ry="3"  width="0" height="0" transform="matrix(1,0,0,1,0,0)" display="none"></rect><text joint-selector="text" id="v-6235" fill="#000000" font-size="14" text-anchor="middle" pointer-events="none"></text></g></g><g  display="none" style="display: none;"><g  transform="translate(4570, 1789)" id="v-6224"><circle  idx="0" r="10"></circle><path  idx="0" d="M16,5.333c-7.732,0-14,4.701-14,10.5c0,1.982,0.741,3.833,2.016,5.414L2,25.667l5.613-1.441c2.339,1.317,5.237,2.107,8.387,2.107c7.732,0,14-4.701,14-10.5C30,10.034,23.732,5.333,16,5.333z" transform="translate(5, -33)"></path><path  idx="0" transform="scale(.8) translate(9.5, -37)" d="M24.778,21.419 19.276,15.917 24.777,10.415 21.949,7.585 16.447,13.087 10.945,7.585 8.117,10.415 13.618,15.917 8.116,21.419 10.946,24.248 16.447,18.746 21.948,24.248z"><title>Remove vertex.</title></path></g><g  transform="translate(4570, 1385)" id="v-6225"><circle  idx="1" r="10"></circle><path  idx="1" d="M16,5.333c-7.732,0-14,4.701-14,10.5c0,1.982,0.741,3.833,2.016,5.414L2,25.667l5.613-1.441c2.339,1.317,5.237,2.107,8.387,2.107c7.732,0,14-4.701,14-10.5C30,10.034,23.732,5.333,16,5.333z" transform="translate(5, -33)"></path><path  idx="1" transform="scale(.8) translate(9.5, -37)" d="M24.778,21.419 19.276,15.917 24.777,10.415 21.949,7.585 16.447,13.087 10.945,7.585 8.117,10.415 13.618,15.917 8.116,21.419 10.946,24.248 16.447,18.746 21.948,24.248z"><title>Remove vertex.</title></path></g></g><g  id="v-6241" display="none"><g  id="v-6226"><path  end="source" d="M 26 0 L 0 13 L 26 26 z"></path></g><g  id="v-6227"><path  end="target" d="M 26 0 L 0 13 L 26 26 z"></path></g></g><g  id="v-6240" display="none"><g  id="v-6223" transform="translate(4385.908721829178, 1965.3542805808347) "><g  event="remove"><circle r="11"></circle><path transform="scale(.8) translate(-16, -16)" d="M24.778,21.419 19.276,15.917 24.777,10.415 21.949,7.585 16.447,13.087 10.945,7.585 8.117,10.415 13.618,15.917 8.116,21.419 10.946,24.248 16.447,18.746 21.948,24.248z"></path><title>Remove link.</title></g><g  event="link:options"><circle r="11" transform="translate(25)"></circle><path fill="white" transform="scale(.55) translate(29, -16)" d="M31.229,17.736c0.064-0.571,0.104-1.148,0.104-1.736s-0.04-1.166-0.104-1.737l-4.377-1.557c-0.218-0.716-0.504-1.401-0.851-2.05l1.993-4.192c-0.725-0.91-1.549-1.734-2.458-2.459l-4.193,1.994c-0.647-0.347-1.334-0.632-2.049-0.849l-1.558-4.378C17.165,0.708,16.588,0.667,16,0.667s-1.166,0.041-1.737,0.105L12.707,5.15c-0.716,0.217-1.401,0.502-2.05,0.849L6.464,4.005C5.554,4.73,4.73,5.554,4.005,6.464l1.994,4.192c-0.347,0.648-0.632,1.334-0.849,2.05l-4.378,1.557C0.708,14.834,0.667,15.412,0.667,16s0.041,1.165,0.105,1.736l4.378,1.558c0.217,0.715,0.502,1.401,0.849,2.049l-1.994,4.193c0.725,0.909,1.549,1.733,2.459,2.458l4.192-1.993c0.648,0.347,1.334,0.633,2.05,0.851l1.557,4.377c0.571,0.064,1.148,0.104,1.737,0.104c0.588,0,1.165-0.04,1.736-0.104l1.558-4.377c0.715-0.218,1.399-0.504,2.049-0.851l4.193,1.993c0.909-0.725,1.733-1.549,2.458-2.458l-1.993-4.193c0.347-0.647,0.633-1.334,0.851-2.049L31.229,17.736zM16,20.871c-2.69,0-4.872-2.182-4.872-4.871c0-2.69,2.182-4.872,4.872-4.872c2.689,0,4.871,2.182,4.871,4.872C20.871,18.689,18.689,20.871,16,20.871z"></path><title>Link options.</title></g></g></g></g><!--z-index:53--><g   id="j_479" ><path  stroke="#707070" d="M 2883 1085 L 3258 1385" id="v-6254" stroke-width="2" stroke-dasharray="30 30" fill="none" style="opacity: 1;"></path><path  fill="black" stroke="black" d="M 0 0 0 0" transform="matrix(0.7808688000832672,0.624695059254128,-0.624695059254128,0.7808688000832672,2882.5,1085)"></path><path  fill="#707070" stroke="#707070" d="M 20 0 L 0 10 L 20 20 z" id="v-6256" transform="matrix(-0.7808688416748548,-0.6246950072646416,0.6246950072646416,-0.7808688416748548,3251.253144594102,1392.8086902472073)" style="opacity: 1;"></path><path  d="M 2883 1085 L 3258 1385" id="v-6255" fill="none" style="cursor: auto; pointer-events: visiblepainted;"></path><g ><g id="v-6248"  label-idx="0" cursor="move" transform="matrix(1,0,0,1,3070.5,1235)" style="cursor: default; opacity: 1;"><rect joint-selector="rect" id="v-6251" fill="#ffffff" rx="3" ry="3" pointer-events="none" width="152.56053161621094" height="58.6755428314209" transform="matrix(1,0,0,1,-79,-29.3)"></rect><text joint-selector="text" id="v-6250" font-size="24px" xml:space="preserve" y="0.8em" fill="#707070" text-anchor="middle" pointer-events="none" font-family="Open Sans" font-weight="normal" transform="matrix(1,0,0,1,0,-24.6)"><tspan dy="0" >Sends emails</tspan><tspan dy="1.2em" x="0" >using</tspan></text></g><g id="v-6249"  label-idx="1" cursor="move" transform="matrix(1,0,0,1,3060.5,1275.800048828125)" style="cursor: default; opacity: 1;"><rect joint-selector="rect" id="v-6253" fill="#ffffff" rx="3" ry="3"  width="0" height="0" transform="matrix(1,0,0,1,0,0)" display="none"></rect><text joint-selector="text" id="v-6252" fill="#000000" font-size="14" text-anchor="middle" pointer-events="none"></text></g></g><g  display="none" style="display: none;"></g><g  id="v-6258" display="none"><g  id="v-6246"><path  end="source" d="M 26 0 L 0 13 L 26 26 z"></path></g><g  id="v-6247"><path  end="target" d="M 26 0 L 0 13 L 26 26 z"></path></g></g><g  id="v-6257" display="none"><g  id="v-6245" transform="translate(2914.234752377721, 1109.9878019021771) "><g  event="remove"><circle r="11"></circle><path transform="scale(.8) translate(-16, -16)" d="M24.778,21.419 19.276,15.917 24.777,10.415 21.949,7.585 16.447,13.087 10.945,7.585 8.117,10.415 13.618,15.917 8.116,21.419 10.946,24.248 16.447,18.746 21.948,24.248z"></path><title>Remove link.</title></g><g  event="link:options"><circle r="11" transform="translate(25)"></circle><path fill="white" transform="scale(.55) translate(29, -16)" d="M31.229,17.736c0.064-0.571,0.104-1.148,0.104-1.736s-0.04-1.166-0.104-1.737l-4.377-1.557c-0.218-0.716-0.504-1.401-0.851-2.05l1.993-4.192c-0.725-0.91-1.549-1.734-2.458-2.459l-4.193,1.994c-0.647-0.347-1.334-0.632-2.049-0.849l-1.558-4.378C17.165,0.708,16.588,0.667,16,0.667s-1.166,0.041-1.737,0.105L12.707,5.15c-0.716,0.217-1.401,0.502-2.05,0.849L6.464,4.005C5.554,4.73,4.73,5.554,4.005,6.464l1.994,4.192c-0.347,0.648-0.632,1.334-0.849,2.05l-4.378,1.557C0.708,14.834,0.667,15.412,0.667,16s0.041,1.165,0.105,1.736l4.378,1.558c0.217,0.715,0.502,1.401,0.849,2.049l-1.994,4.193c0.725,0.909,1.549,1.733,2.459,2.458l4.192-1.993c0.648,0.347,1.334,0.633,2.05,0.851l1.557,4.377c0.571,0.064,1.148,0.104,1.737,0.104c0.588,0,1.165-0.04,1.736-0.104l1.558-4.377c0.715-0.218,1.399-0.504,2.049-0.851l4.193,1.993c0.909-0.725,1.733-1.549,2.458-2.458l-1.993-4.193c0.347-0.647,0.633-1.334,0.851-2.049L31.229,17.736zM16,20.871c-2.69,0-4.872-2.182-4.872-4.871c0-2.69,2.182-4.872,4.872-4.872c2.689,0,4.871,2.182,4.871,4.872C20.871,18.689,18.689,20.871,16,20.871z"></path><title>Link options.</title></g></g></g></g><!--z-index:54--><g   id="j_480" ><path  stroke="#707070" d="M 2920 1025 L 3970 1445" id="v-6271" stroke-width="2" stroke-dasharray="30 30" fill="none" style="opacity: 1;"></path><path  fill="black" stroke="black" d="M 0 0 0 0" transform="matrix(0.9284766955435519,0.371390664708372,-0.371390664708372,0.9284766955435519,2920,1025)"></path><path  fill="#707070" stroke="#707070" d="M 20 0 L 0 10 L 20 20 z" id="v-6273" transform="matrix(-0.928476707906966,-0.3713906337998342,0.3713906337998342,-0.928476707906966,3966.2861927723216,1454.2848062295677)" style="opacity: 1;"></path><path  d="M 2920 1025 L 3970 1445" id="v-6272" fill="none" style="cursor: auto; pointer-events: visiblepainted;"></path><g ><g id="v-6265"  label-idx="0" cursor="move" transform="matrix(1,0,0,1,3445,1235)" style="cursor: default; opacity: 1;"><rect joint-selector="rect" id="v-6268" fill="#ffffff" rx="3" ry="3" pointer-events="none" width="181.2704315185547" height="58.6755428314209" transform="matrix(1,0,0,1,-88.2,-29.3)"></rect><text joint-selector="text" id="v-6267" font-size="24px" xml:space="preserve" y="0.8em" fill="#707070" text-anchor="middle" pointer-events="none" font-family="Open Sans" font-weight="normal" transform="matrix(1,0,0,1,0,-24.6)"><tspan dy="0" >Processes</tspan><tspan dy="1.2em" x="0" >payments using</tspan></text></g><g id="v-6266"  label-idx="1" cursor="move" transform="matrix(1,0,0,1,3435,1275.800048828125)" style="cursor: default; opacity: 1;"><rect joint-selector="rect" id="v-6270" fill="#ffffff" rx="3" ry="3"  width="0" height="0" transform="matrix(1,0,0,1,0,0)" display="none"></rect><text joint-selector="text" id="v-6269" fill="#000000" font-size="14" text-anchor="middle" pointer-events="none"></text></g></g><g  display="none" style="display: none;"></g><g  id="v-6275" display="none"><g  id="v-6263"><path  end="source" d="M 26 0 L 0 13 L 26 26 z"></path></g><g  id="v-6264"><path  end="target" d="M 26 0 L 0 13 L 26 26 z"></path></g></g><g  id="v-6274" display="none"><g  id="v-6262" transform="translate(2957.13906763541, 1039.8556270541642) "><g  event="remove"><circle r="11"></circle><path transform="scale(.8) translate(-16, -16)" d="M24.778,21.419 19.276,15.917 24.777,10.415 21.949,7.585 16.447,13.087 10.945,7.585 8.117,10.415 13.618,15.917 8.116,21.419 10.946,24.248 16.447,18.746 21.948,24.248z"></path><title>Remove link.</title></g><g  event="link:options"><circle r="11" transform="translate(25)"></circle><path fill="white" transform="scale(.55) translate(29, -16)" d="M31.229,17.736c0.064-0.571,0.104-1.148,0.104-1.736s-0.04-1.166-0.104-1.737l-4.377-1.557c-0.218-0.716-0.504-1.401-0.851-2.05l1.993-4.192c-0.725-0.91-1.549-1.734-2.458-2.459l-4.193,1.994c-0.647-0.347-1.334-0.632-2.049-0.849l-1.558-4.378C17.165,0.708,16.588,0.667,16,0.667s-1.166,0.041-1.737,0.105L12.707,5.15c-0.716,0.217-1.401,0.502-2.05,0.849L6.464,4.005C5.554,4.73,4.73,5.554,4.005,6.464l1.994,4.192c-0.347,0.648-0.632,1.334-0.849,2.05l-4.378,1.557C0.708,14.834,0.667,15.412,0.667,16s0.041,1.165,0.105,1.736l4.378,1.558c0.217,0.715,0.502,1.401,0.849,2.049l-1.994,4.193c0.725,0.909,1.549,1.733,2.459,2.458l4.192-1.993c0.648,0.347,1.334,0.633,2.05,0.851l1.557,4.377c0.571,0.064,1.148,0.104,1.737,0.104c0.588,0,1.165-0.04,1.736-0.104l1.558-4.377c0.715-0.218,1.399-0.504,2.049-0.851l4.193,1.993c0.909-0.725,1.733-1.549,2.458-2.458l-1.993-4.193c0.347-0.647,0.633-1.334,0.851-2.049L31.229,17.736zM16,20.871c-2.69,0-4.872-2.182-4.872-4.871c0-2.69,2.182-4.872,4.872-4.872c2.689,0,4.871,2.182,4.871,4.872C20.871,18.689,18.689,20.871,16,20.871z"></path><title>Link options.</title></g></g></g></g><!--z-index:55--><g   id="j_481" ><path  stroke="#707070" d="M 3609 1685 L 3957 2002" id="v-6288" stroke-width="2" stroke-dasharray="30 30" fill="none" style="opacity: 1;"></path><path  fill="black" stroke="black" d="M 0 0 0 0" transform="matrix(0.7385236481509043,0.6742275736884982,-0.6742275736884982,0.7385236481509043,3609.31005859375,1685)"></path><path  fill="#707070" stroke="#707070" d="M 20 0 L 0 10 L 20 20 z" id="v-6290" transform="matrix(-0.7385236481509042,-0.6742275736884983,0.6742275736884983,-0.7385236481509042,3950.2577068383744,2009.8052465933938)" style="opacity: 1;"></path><path  d="M 3609 1685 L 3957 2002" id="v-6289" fill="none" style="cursor: auto; pointer-events: visiblepainted;"></path><g ><g id="v-6282"  label-idx="0" cursor="move" transform="matrix(1,0,0,1,3783,1843.5)" style="cursor: default; opacity: 1;"><rect joint-selector="rect" id="v-6285" fill="#ffffff" rx="3" ry="3" pointer-events="none" width="184.71859741210938" height="29.875536918640137" transform="matrix(1,0,0,1,-93.6,-14.9)"></rect><text joint-selector="text" id="v-6284" font-size="24px" xml:space="preserve" y="0.8em" fill="#707070" text-anchor="middle" pointer-events="none" font-family="Open Sans" font-weight="normal" transform="matrix(1,0,0,1,0,-10.2)"><tspan dy="0" >Sends emails to</tspan></text></g><g id="v-6283"  label-idx="1" cursor="move" transform="matrix(1,0,0,1,3773,1869.9000244140625)" style="cursor: default; opacity: 1;"><rect joint-selector="rect" id="v-6287" fill="#ffffff" rx="3" ry="3"  width="0" height="0" transform="matrix(1,0,0,1,0,0)" display="none"></rect><text joint-selector="text" id="v-6286" fill="#000000" font-size="14" text-anchor="middle" pointer-events="none"></text></g></g><g  display="none" style="display: none;"></g><g  id="v-6292" display="none"><g  id="v-6280"><path  end="source" d="M 26 0 L 0 13 L 26 26 z"></path></g><g  id="v-6281"><path  end="target" d="M 26 0 L 0 13 L 26 26 z"></path></g></g><g  id="v-6291" display="none"><g  id="v-6279" transform="translate(3638.5706735404065, 1711.9365043457149) "><g  event="remove"><circle r="11"></circle><path transform="scale(.8) translate(-16, -16)" d="M24.778,21.419 19.276,15.917 24.777,10.415 21.949,7.585 16.447,13.087 10.945,7.585 8.117,10.415 13.618,15.917 8.116,21.419 10.946,24.248 16.447,18.746 21.948,24.248z"></path><title>Remove link.</title></g><g  event="link:options"><circle r="11" transform="translate(25)"></circle><path fill="white" transform="scale(.55) translate(29, -16)" d="M31.229,17.736c0.064-0.571,0.104-1.148,0.104-1.736s-0.04-1.166-0.104-1.737l-4.377-1.557c-0.218-0.716-0.504-1.401-0.851-2.05l1.993-4.192c-0.725-0.91-1.549-1.734-2.458-2.459l-4.193,1.994c-0.647-0.347-1.334-0.632-2.049-0.849l-1.558-4.378C17.165,0.708,16.588,0.667,16,0.667s-1.166,0.041-1.737,0.105L12.707,5.15c-0.716,0.217-1.401,0.502-2.05,0.849L6.464,4.005C5.554,4.73,4.73,5.554,4.005,6.464l1.994,4.192c-0.347,0.648-0.632,1.334-0.849,2.05l-4.378,1.557C0.708,14.834,0.667,15.412,0.667,16s0.041,1.165,0.105,1.736l4.378,1.558c0.217,0.715,0.502,1.401,0.849,2.049l-1.994,4.193c0.725,0.909,1.549,1.733,2.459,2.458l4.192-1.993c0.648,0.347,1.334,0.633,2.05,0.851l1.557,4.377c0.571,0.064,1.148,0.104,1.737,0.104c0.588,0,1.165-0.04,1.736-0.104l1.558-4.377c0.715-0.218,1.399-0.504,2.049-0.851l4.193,1.993c0.909-0.725,1.733-1.549,2.458-2.458l-1.993-4.193c0.347-0.647,0.633-1.334,0.851-2.049L31.229,17.736zM16,20.871c-2.69,0-4.872-2.182-4.872-4.871c0-2.69,2.182-4.872,4.872-4.872c2.689,0,4.871,2.182,4.871,4.872C20.871,18.689,18.689,20.871,16,20.871z"></path><title>Link options.</title></g></g></g></g><!--z-index:56--><!--z-index:57--><!--z-index:58--><!--z-index:59--><!--z-index:60--><!--z-index:61--><!--z-index:62--><!--z-index:63--><!--z-index:64--><!--z-index:65--><!--z-index:66--><!--z-index:67--></g><g ></g><g ></g><g ></g></g></svg>