<svg xmlns="http://www.w3.org/2000/svg" xmlns:xlink="http://www.w3.org/1999/xlink" version="1.1" viewBox="0 0 2390 2000" style="background: #ffffff"><defs><style>@import url(https://fonts.googleapis.com/css?family=Open+Sans:400,700);</style></defs><defs joint-selector="defs"></defs><g joint-selector="layers"  transform="matrix(1,0,0,1,0,0)"><g ></g><g ><!--z-index:-14--><!--z-index:-13--><!--z-index:-12--><!--z-index:-11--><!--z-index:-10--><!--z-index:-9--><!--z-index:-8--><!--z-index:-7--><!--z-index:-6--><!--z-index:-5--><!--z-index:-4--><!--z-index:-3--><!--z-index:-2--><!--z-index:-1--><!--z-index:0--><!--z-index:1--><!--z-index:2--><!--z-index:3--><!--z-index:4--><!--z-index:5--><!--z-index:6--><!--z-index:7--><!--z-index:8--><!--z-index:9--><!--z-index:10--><!--z-index:11--><!--z-index:12--><!--z-index:13--><!--z-index:14--><!--z-index:15--><!--z-index:16--><!--z-index:17--><!--z-index:18--><g   id="j_483"  transform="translate(20,1963.6)"><g id="v-6298"><text  id="v-6299" font-size="22px" xml:space="preserve" y="0.8em" font-weight="normal" text-anchor="start" fill="#aaaaaa" pointer-events="none" display="block" font-family="Open Sans"><tspan dy="0" >Saturday, December 14, 2024 at 10:02 AM Eastern European Standard Time</tspan></text></g></g><!--z-index:19--><g   id="j_482"  transform="translate(20,1920.3999999999999)"><g id="v-6296"><text  id="v-6297" font-size="36px" xml:space="preserve" y="0.8em" font-weight="normal" text-anchor="start" fill="#000000" pointer-events="none" display="block" font-family="Open Sans"><tspan dy="0" >[Component] Train Ticketing System - Web Application</tspan></text></g></g><!--z-index:20--><g   id="j_484"  transform="translate(995,165)" style=""><g  id="v-6306" style="opacity: 1;"><rect  x="0" y="160" width="400" height="240" rx="70" id="v-6308" stroke="#073b6f" stroke-width="2" pointer-events="visiblePainted" fill="#08427b" style="fill: rgb(8, 66, 123); stroke: rgb(7, 59, 111);"></rect><circle  cx="200" cy="88.88888888888889" r="88.88888888888889" id="v-6307" stroke="#073b6f" stroke-width="2" pointer-events="visiblePainted" fill="#08427b" style="fill: rgb(8, 66, 123); stroke: rgb(7, 59, 111);"></circle><line  x1="80" y1="266.6666666666667" x2="80" y2="400" id="v-6314" stroke="#073b6f" stroke-width="2" style="stroke: rgb(7, 59, 111);"></line><line  x1="320" y1="266.6666666666667" x2="320" y2="400" id="v-6315" stroke="#073b6f" stroke-width="2" style="stroke: rgb(7, 59, 111);"></line><text  id="v-6309" font-size="34" xml:space="preserve" y="0.8em" font-weight="bold" text-anchor="middle" pointer-events="visible" font-family="Open Sans" fill="#ffffff" transform="matrix(1,0,0,1,200,218.1)" style="fill: rgb(255, 255, 255);"><tspan dy="0" >Train Ticket Buyer</tspan></text><text  id="v-6310" font-size="17" xml:space="preserve" y="0.8em" text-anchor="middle" font-family="Open Sans" fill="#ffffff" transform="matrix(1,0,0,1,200,258.9)" style="fill: rgb(255, 255, 255);"><tspan dy="0" >[Person]</tspan></text><text  id="v-6311" font-size="24" xml:space="preserve" y="0.8em" text-anchor="middle" font-family="Open Sans" fill="#ffffff" transform="matrix(1,0,0,1,200,289.3)" style="fill: rgb(255, 255, 255);"><tspan dy="0" >A customer of the train ticketing</tspan><tspan dy="1.2em" x="0" >company.</tspan></text><g  id="v-6312" font-weight="normal" text-anchor="middle" color="#ffffff" transform="matrix(1,0,0,1,197.5,368)" style="fill: rgb(255, 255, 255);" display="none"><g ></g><g ></g><g ></g><g ></g></g><image  id="v-6313"></image></g></g><!--z-index:21--><g   id="j_485"  transform="translate(1720,1465)" style=""><g  id="v-6322" style="opacity: 1;"><rect  id="v-6323" rx="1" ry="1" stroke="#3c7fc0" stroke-width="2" pointer-events="visiblePainted" fill="#438dd5" width="450" height="300" style="fill: rgb(67, 141, 213); stroke: rgb(60, 127, 192);"></rect><text  id="v-6324" font-size="34" xml:space="preserve" y="0.8em" font-weight="bold" text-anchor="middle" pointer-events="visible" font-family="Open Sans" fill="#ffffff" transform="matrix(1,0,0,1,225,88.1)" style="fill: rgb(255, 255, 255);"><tspan dy="0" >Order Application</tspan></text><text  id="v-6325" font-size="17" xml:space="preserve" y="0.8em" text-anchor="middle" font-family="Open Sans" fill="#ffffff" transform="matrix(1,0,0,1,225,128.9)" style="fill: rgb(255, 255, 255);"><tspan dy="0" >[Container: Python/Flask]</tspan></text><text  id="v-6326" font-size="24" xml:space="preserve" y="0.8em" text-anchor="middle" font-family="Open Sans" fill="#ffffff" transform="matrix(1,0,0,1,225,159.3)" style="fill: rgb(255, 255, 255);"><tspan dy="0" >Handles order processing and ticket</tspan><tspan dy="1.2em" x="0" >management</tspan></text><g  id="v-6327" color="#ffffff" transform="matrix(1,0,0,1,222.5,268)" style="fill: rgb(255, 255, 255);" display="none"><g ></g><g ></g><g ></g><g ></g></g><image  id="v-6328"></image></g></g><!--z-index:22--><g   id="j_486"  transform="translate(220,1465)" style=""><g  id="v-6335" style="opacity: 1;"><rect  id="v-6336" rx="1" ry="1" stroke="#3c7fc0" stroke-width="2" pointer-events="visiblePainted" fill="#438dd5" width="450" height="300" style="fill: rgb(67, 141, 213); stroke: rgb(60, 127, 192);"></rect><text  id="v-6337" font-size="34" xml:space="preserve" y="0.8em" font-weight="bold" text-anchor="middle" pointer-events="visible" font-family="Open Sans" fill="#ffffff" transform="matrix(1,0,0,1,225,88.1)" style="fill: rgb(255, 255, 255);"><tspan dy="0" >Auth Application</tspan></text><text  id="v-6338" font-size="17" xml:space="preserve" y="0.8em" text-anchor="middle" font-family="Open Sans" fill="#ffffff" transform="matrix(1,0,0,1,225,128.9)" style="fill: rgb(255, 255, 255);"><tspan dy="0" >[Container: Python/Flask]</tspan></text><text  id="v-6339" font-size="24" xml:space="preserve" y="0.8em" text-anchor="middle" font-family="Open Sans" fill="#ffffff" transform="matrix(1,0,0,1,225,159.3)" style="fill: rgb(255, 255, 255);"><tspan dy="0" >Handles user authentication and</tspan><tspan dy="1.2em" x="0" >authorization</tspan></text><g  id="v-6340" color="#ffffff" transform="matrix(1,0,0,1,222.5,268)" style="fill: rgb(255, 255, 255);" display="none"><g ></g><g ></g><g ></g><g ></g></g><image  id="v-6341"></image></g></g><!--z-index:23--><g   id="j_487"  transform="translate(970,1465)" style=""><g  id="v-6348" style="opacity: 1;"><rect  id="v-6349" rx="1" ry="1" stroke="#3c7fc0" stroke-width="2" pointer-events="visiblePainted" fill="#438dd5" width="450" height="300" style="fill: rgb(67, 141, 213); stroke: rgb(60, 127, 192);"></rect><text  id="v-6350" font-size="34" xml:space="preserve" y="0.8em" font-weight="bold" text-anchor="middle" pointer-events="visible" font-family="Open Sans" fill="#ffffff" transform="matrix(1,0,0,1,225,88.1)" style="fill: rgb(255, 255, 255);"><tspan dy="0" >Search Application</tspan></text><text  id="v-6351" font-size="17" xml:space="preserve" y="0.8em" text-anchor="middle" font-family="Open Sans" fill="#ffffff" transform="matrix(1,0,0,1,225,128.9)" style="fill: rgb(255, 255, 255);"><tspan dy="0" >[Container: Python/Flask]</tspan></text><text  id="v-6352" font-size="24" xml:space="preserve" y="0.8em" text-anchor="middle" font-family="Open Sans" fill="#ffffff" transform="matrix(1,0,0,1,225,159.3)" style="fill: rgb(255, 255, 255);"><tspan dy="0" >Handles train and seat search</tspan><tspan dy="1.2em" x="0" >functionality</tspan></text><g  id="v-6353" color="#ffffff" transform="matrix(1,0,0,1,222.5,268)" style="fill: rgb(255, 255, 255);" display="none"><g ></g><g ></g><g ></g><g ></g></g><image  id="v-6354"></image></g></g><!--z-index:24--><g   id="j_489"  transform="translate(200,845)" style=""><g id="v-6365"><rect  id="v-6366" width="1990" height="411" rx="0" ry="0" fill="#ffffff" stroke="#c7c7c7" stroke-width="1" stroke-dasharray="20,20" pointer-events="none"></rect><text  id="v-6367" font-size="24px" xml:space="preserve" y="372" font-weight="normal" fill="#c7c7c7" text-anchor="start" pointer-events="visible" font-family="Open Sans" transform="matrix(1,0,0,1,15,0)"><tspan dy="0" >Web Application</tspan></text><text  id="v-6368" font-size="17px" xml:space="preserve" y="396" font-weight="normal" fill="#c7c7c7" text-anchor="start" pointer-events="visible" font-family="Open Sans" transform="matrix(1,0,0,1,15,0)"><tspan dy="0" >[Container]</tspan></text><image  id="v-6369" pointer-events="visible"></image></g></g><!--z-index:25--><g   id="j_488"  transform="translate(220,865)" style=""><g  id="v-6358" style="opacity: 1;"><rect  id="v-6359" rx="1" ry="1" stroke="#78a8d8" stroke-width="2" pointer-events="visiblePainted" fill="#85bbf0" width="450" height="300" style="fill: rgb(133, 187, 240); stroke: rgb(120, 168, 216);"></rect><text  id="v-6360" font-size="34" xml:space="preserve" y="0.8em" font-weight="bold" text-anchor="middle" pointer-events="visible" font-family="Open Sans" fill="#000000" transform="matrix(1,0,0,1,225,88.1)" style="fill: rgb(0, 0, 0);"><tspan dy="0" >Auth Component</tspan></text><text  id="v-6361" font-size="17" xml:space="preserve" y="0.8em" text-anchor="middle" font-family="Open Sans" fill="#000000" transform="matrix(1,0,0,1,225,128.9)" style="fill: rgb(0, 0, 0);"><tspan dy="0" >[Component: Python/Flask]</tspan></text><text  id="v-6362" font-size="24" xml:space="preserve" y="0.8em" text-anchor="middle" font-family="Open Sans" fill="#000000" transform="matrix(1,0,0,1,225,159.3)" style="fill: rgb(0, 0, 0);"><tspan dy="0" >Handles user authentication and</tspan><tspan dy="1.2em" x="0" >authorization UI</tspan></text><g  id="v-6363" color="#000000" transform="matrix(1,0,0,1,222.5,268)" style="fill: rgb(0, 0, 0);" display="none"><g ></g><g ></g><g ></g><g ></g></g><image  id="v-6364"></image></g></g><!--z-index:26--><g   id="j_490"  transform="translate(970,865)" style=""><g  id="v-6376" style="opacity: 1;"><rect  id="v-6377" rx="1" ry="1" stroke="#78a8d8" stroke-width="2" pointer-events="visiblePainted" fill="#85bbf0" width="450" height="300" style="fill: rgb(133, 187, 240); stroke: rgb(120, 168, 216);"></rect><text  id="v-6378" font-size="34" xml:space="preserve" y="0.8em" font-weight="bold" text-anchor="middle" pointer-events="visible" font-family="Open Sans" fill="#000000" transform="matrix(1,0,0,1,225,102.5)" style="fill: rgb(0, 0, 0);"><tspan dy="0" >Search Component</tspan></text><text  id="v-6379" font-size="17" xml:space="preserve" y="0.8em" text-anchor="middle" font-family="Open Sans" fill="#000000" transform="matrix(1,0,0,1,225,143.3)" style="fill: rgb(0, 0, 0);"><tspan dy="0" >[Component: Python/Flask]</tspan></text><text  id="v-6380" font-size="24" xml:space="preserve" y="0.8em" text-anchor="middle" font-family="Open Sans" fill="#000000" transform="matrix(1,0,0,1,225,173.7)" style="fill: rgb(0, 0, 0);"><tspan dy="0" >Handles train and seat search UI</tspan></text><g  id="v-6381" color="#000000" transform="matrix(1,0,0,1,222.5,268)" style="fill: rgb(0, 0, 0);" display="none"><g ></g><g ></g><g ></g><g ></g></g><image  id="v-6382"></image></g></g><!--z-index:27--><g   id="j_491"  transform="translate(1720,865)" style=""><g  id="v-6386" style="opacity: 1;"><rect  id="v-6387" rx="1" ry="1" stroke="#78a8d8" stroke-width="2" pointer-events="visiblePainted" fill="#85bbf0" width="450" height="300" style="fill: rgb(133, 187, 240); stroke: rgb(120, 168, 216);"></rect><text  id="v-6388" font-size="34" xml:space="preserve" y="0.8em" font-weight="bold" text-anchor="middle" pointer-events="visible" font-family="Open Sans" fill="#000000" transform="matrix(1,0,0,1,225,88.1)" style="fill: rgb(0, 0, 0);"><tspan dy="0" >Order Component</tspan></text><text  id="v-6389" font-size="17" xml:space="preserve" y="0.8em" text-anchor="middle" font-family="Open Sans" fill="#000000" transform="matrix(1,0,0,1,225,128.9)" style="fill: rgb(0, 0, 0);"><tspan dy="0" >[Component: Python/Flask]</tspan></text><text  id="v-6390" font-size="24" xml:space="preserve" y="0.8em" text-anchor="middle" font-family="Open Sans" fill="#000000" transform="matrix(1,0,0,1,225,159.3)" style="fill: rgb(0, 0, 0);"><tspan dy="0" >Handles order processing and ticket</tspan><tspan dy="1.2em" x="0" >management UI</tspan></text><g  id="v-6391" color="#000000" transform="matrix(1,0,0,1,222.5,268)" style="fill: rgb(0, 0, 0);" display="none"><g ></g><g ></g><g ></g><g ></g></g><image  id="v-6392"></image></g></g><!--z-index:28--><g   id="j_492" ><path  stroke="#707070" d="M 445 1165 L 445 1465" id="v-6408" stroke-width="2" stroke-dasharray="30 30" fill="none" style="opacity: 1;"></path><path  fill="black" stroke="black" d="M 0 0 0 0" transform="matrix(6.123233995736766e-17,1,-1,6.123233995736766e-17,445,1165)"></path><path  fill="#707070" stroke="#707070" d="M 20 0 L 0 10 L 20 20 z" id="v-6410" transform="matrix(-1.8369701987210297e-16,-1,1,-1.8369701987210297e-16,435,1465)" style="opacity: 1;"></path><path  d="M 445 1165 L 445 1465" id="v-6409" fill="none" style="cursor: auto; pointer-events: visiblepainted;"></path><g ><g id="v-6399"  label-idx="0" cursor="move" transform="matrix(1,0,0,1,445,1315)" style="cursor: default; opacity: 1;"><rect joint-selector="rect" id="v-6403" fill="#ffffff" rx="3" ry="3" pointer-events="none" width="199.2250518798828" height="32.93198204040527" transform="matrix(1,0,0,1,-99.4,-16.4)"></rect><text joint-selector="text" id="v-6402" font-size="24px" xml:space="preserve" y="0.8em" fill="#707070" text-anchor="middle" pointer-events="none" font-family="Open Sans" font-weight="normal" transform="matrix(1,0,0,1,0,-8.7)"><tspan dy="0" >Makes API calls to</tspan></text></g><g id="v-6400"  label-idx="1" cursor="move" transform="matrix(1,0,0,1,445,1341.4000244140625)" style="cursor: default; opacity: 1;"><rect joint-selector="rect" id="v-6405" fill="#ffffff" rx="3" ry="3" pointer-events="none" width="108.35099029541016" height="23.95053482055664" transform="matrix(1,0,0,1,-54,-12)"></rect><text joint-selector="text" id="v-6404" font-size="17px" xml:space="preserve" y="0.8em" fill="#707070" text-anchor="middle" pointer-events="none" font-family="Open Sans" font-weight="normal" transform="matrix(1,0,0,1,0,-7.6)"><tspan dy="0" >[JSON/HTTPS]</tspan></text></g><g id="v-6401"  label-idx="2" cursor="move" transform="matrix(1,0,0,1,435,1349.800048828125)" style="cursor: default; opacity: 1;"><rect joint-selector="rect" id="v-6407" fill="#ffffff" rx="3" ry="3"  width="0" height="0" transform="matrix(1,0,0,1,0,0)" display="none"></rect><text joint-selector="text" id="v-6406" fill="#000000" font-size="14" text-anchor="middle" pointer-events="none"></text></g></g><g  display="none" style="display: none;"></g><g  id="v-6412" display="none"><g  id="v-6397"><path  end="source" d="M 26 0 L 0 13 L 26 26 z"></path></g><g  id="v-6398"><path  end="target" d="M 26 0 L 0 13 L 26 26 z"></path></g></g><g  id="v-6411" display="none"><g  id="v-6396" transform="translate(445, 1205) "><g  event="remove"><circle r="11"></circle><path transform="scale(.8) translate(-16, -16)" d="M24.778,21.419 19.276,15.917 24.777,10.415 21.949,7.585 16.447,13.087 10.945,7.585 8.117,10.415 13.618,15.917 8.116,21.419 10.946,24.248 16.447,18.746 21.948,24.248z"></path><title>Remove link.</title></g><g  event="link:options"><circle r="11" transform="translate(25)"></circle><path fill="white" transform="scale(.55) translate(29, -16)" d="M31.229,17.736c0.064-0.571,0.104-1.148,0.104-1.736s-0.04-1.166-0.104-1.737l-4.377-1.557c-0.218-0.716-0.504-1.401-0.851-2.05l1.993-4.192c-0.725-0.91-1.549-1.734-2.458-2.459l-4.193,1.994c-0.647-0.347-1.334-0.632-2.049-0.849l-1.558-4.378C17.165,0.708,16.588,0.667,16,0.667s-1.166,0.041-1.737,0.105L12.707,5.15c-0.716,0.217-1.401,0.502-2.05,0.849L6.464,4.005C5.554,4.73,4.73,5.554,4.005,6.464l1.994,4.192c-0.347,0.648-0.632,1.334-0.849,2.05l-4.378,1.557C0.708,14.834,0.667,15.412,0.667,16s0.041,1.165,0.105,1.736l4.378,1.558c0.217,0.715,0.502,1.401,0.849,2.049l-1.994,4.193c0.725,0.909,1.549,1.733,2.459,2.458l4.192-1.993c0.648,0.347,1.334,0.633,2.05,0.851l1.557,4.377c0.571,0.064,1.148,0.104,1.737,0.104c0.588,0,1.165-0.04,1.736-0.104l1.558-4.377c0.715-0.218,1.399-0.504,2.049-0.851l4.193,1.993c0.909-0.725,1.733-1.549,2.458-2.458l-1.993-4.193c0.347-0.647,0.633-1.334,0.851-2.049L31.229,17.736zM16,20.871c-2.69,0-4.872-2.182-4.872-4.871c0-2.69,2.182-4.872,4.872-4.872c2.689,0,4.871,2.182,4.871,4.872C20.871,18.689,18.689,20.871,16,20.871z"></path><title>Link options.</title></g></g></g></g><!--z-index:29--><g   id="j_493" ><path  stroke="#707070" d="M 1195 1165 L 1195 1465" id="v-6428" stroke-width="2" stroke-dasharray="30 30" fill="none" style="opacity: 1;"></path><path  fill="black" stroke="black" d="M 0 0 0 0" transform="matrix(6.123233995736766e-17,1,-1,6.123233995736766e-17,1195,1165)"></path><path  fill="#707070" stroke="#707070" d="M 20 0 L 0 10 L 20 20 z" id="v-6430" transform="matrix(-1.8369701987210297e-16,-1,1,-1.8369701987210297e-16,1185,1465)" style="opacity: 1;"></path><path  d="M 1195 1165 L 1195 1465" id="v-6429" fill="none" style="cursor: auto; pointer-events: visiblepainted;"></path><g ><g id="v-6419"  label-idx="0" cursor="move" transform="matrix(1,0,0,1,1195,1315)" style="cursor: default; opacity: 1;"><rect joint-selector="rect" id="v-6423" fill="#ffffff" rx="3" ry="3" pointer-events="none" width="199.2250518798828" height="32.93198204040527" transform="matrix(1,0,0,1,-99.4,-16.4)"></rect><text joint-selector="text" id="v-6422" font-size="24px" xml:space="preserve" y="0.8em" fill="#707070" text-anchor="middle" pointer-events="none" font-family="Open Sans" font-weight="normal" transform="matrix(1,0,0,1,0,-8.7)"><tspan dy="0" >Makes API calls to</tspan></text></g><g id="v-6420"  label-idx="1" cursor="move" transform="matrix(1,0,0,1,1195,1341.4000244140625)" style="cursor: default; opacity: 1;"><rect joint-selector="rect" id="v-6425" fill="#ffffff" rx="3" ry="3" pointer-events="none" width="108.35099029541016" height="23.95053482055664" transform="matrix(1,0,0,1,-54,-12)"></rect><text joint-selector="text" id="v-6424" font-size="17px" xml:space="preserve" y="0.8em" fill="#707070" text-anchor="middle" pointer-events="none" font-family="Open Sans" font-weight="normal" transform="matrix(1,0,0,1,0,-7.6)"><tspan dy="0" >[JSON/HTTPS]</tspan></text></g><g id="v-6421"  label-idx="2" cursor="move" transform="matrix(1,0,0,1,1185,1349.800048828125)" style="cursor: default; opacity: 1;"><rect joint-selector="rect" id="v-6427" fill="#ffffff" rx="3" ry="3"  width="0" height="0" transform="matrix(1,0,0,1,0,0)" display="none"></rect><text joint-selector="text" id="v-6426" fill="#000000" font-size="14" text-anchor="middle" pointer-events="none"></text></g></g><g  display="none" style="display: none;"></g><g  id="v-6432" display="none"><g  id="v-6417"><path  end="source" d="M 26 0 L 0 13 L 26 26 z"></path></g><g  id="v-6418"><path  end="target" d="M 26 0 L 0 13 L 26 26 z"></path></g></g><g  id="v-6431" display="none"><g  id="v-6416" transform="translate(1195, 1205) "><g  event="remove"><circle r="11"></circle><path transform="scale(.8) translate(-16, -16)" d="M24.778,21.419 19.276,15.917 24.777,10.415 21.949,7.585 16.447,13.087 10.945,7.585 8.117,10.415 13.618,15.917 8.116,21.419 10.946,24.248 16.447,18.746 21.948,24.248z"></path><title>Remove link.</title></g><g  event="link:options"><circle r="11" transform="translate(25)"></circle><path fill="white" transform="scale(.55) translate(29, -16)" d="M31.229,17.736c0.064-0.571,0.104-1.148,0.104-1.736s-0.04-1.166-0.104-1.737l-4.377-1.557c-0.218-0.716-0.504-1.401-0.851-2.05l1.993-4.192c-0.725-0.91-1.549-1.734-2.458-2.459l-4.193,1.994c-0.647-0.347-1.334-0.632-2.049-0.849l-1.558-4.378C17.165,0.708,16.588,0.667,16,0.667s-1.166,0.041-1.737,0.105L12.707,5.15c-0.716,0.217-1.401,0.502-2.05,0.849L6.464,4.005C5.554,4.73,4.73,5.554,4.005,6.464l1.994,4.192c-0.347,0.648-0.632,1.334-0.849,2.05l-4.378,1.557C0.708,14.834,0.667,15.412,0.667,16s0.041,1.165,0.105,1.736l4.378,1.558c0.217,0.715,0.502,1.401,0.849,2.049l-1.994,4.193c0.725,0.909,1.549,1.733,2.459,2.458l4.192-1.993c0.648,0.347,1.334,0.633,2.05,0.851l1.557,4.377c0.571,0.064,1.148,0.104,1.737,0.104c0.588,0,1.165-0.04,1.736-0.104l1.558-4.377c0.715-0.218,1.399-0.504,2.049-0.851l4.193,1.993c0.909-0.725,1.733-1.549,2.458-2.458l-1.993-4.193c0.347-0.647,0.633-1.334,0.851-2.049L31.229,17.736zM16,20.871c-2.69,0-4.872-2.182-4.872-4.871c0-2.69,2.182-4.872,4.872-4.872c2.689,0,4.871,2.182,4.871,4.872C20.871,18.689,18.689,20.871,16,20.871z"></path><title>Link options.</title></g></g></g></g><!--z-index:30--><g   id="j_494" ><path  stroke="#707070" d="M 1945 1165 L 1945 1465" id="v-6448" stroke-width="2" stroke-dasharray="30 30" fill="none" style="opacity: 1;"></path><path  fill="black" stroke="black" d="M 0 0 0 0" transform="matrix(6.123233995736766e-17,1,-1,6.123233995736766e-17,1945,1165)"></path><path  fill="#707070" stroke="#707070" d="M 20 0 L 0 10 L 20 20 z" id="v-6450" transform="matrix(-1.8369701987210297e-16,-1,1,-1.8369701987210297e-16,1935,1465)" style="opacity: 1;"></path><path  d="M 1945 1165 L 1945 1465" id="v-6449" fill="none" style="cursor: auto; pointer-events: visiblepainted;"></path><g ><g id="v-6439"  label-idx="0" cursor="move" transform="matrix(1,0,0,1,1945,1315)" style="cursor: default; opacity: 1;"><rect joint-selector="rect" id="v-6443" fill="#ffffff" rx="3" ry="3" pointer-events="none" width="199.2250518798828" height="32.93198204040527" transform="matrix(1,0,0,1,-99.4,-16.4)"></rect><text joint-selector="text" id="v-6442" font-size="24px" xml:space="preserve" y="0.8em" fill="#707070" text-anchor="middle" pointer-events="none" font-family="Open Sans" font-weight="normal" transform="matrix(1,0,0,1,0,-8.7)"><tspan dy="0" >Makes API calls to</tspan></text></g><g id="v-6440"  label-idx="1" cursor="move" transform="matrix(1,0,0,1,1945,1341.4000244140625)" style="cursor: default; opacity: 1;"><rect joint-selector="rect" id="v-6445" fill="#ffffff" rx="3" ry="3" pointer-events="none" width="108.35099029541016" height="23.95053482055664" transform="matrix(1,0,0,1,-54,-12)"></rect><text joint-selector="text" id="v-6444" font-size="17px" xml:space="preserve" y="0.8em" fill="#707070" text-anchor="middle" pointer-events="none" font-family="Open Sans" font-weight="normal" transform="matrix(1,0,0,1,0,-7.6)"><tspan dy="0" >[JSON/HTTPS]</tspan></text></g><g id="v-6441"  label-idx="2" cursor="move" transform="matrix(1,0,0,1,1935,1349.800048828125)" style="cursor: default; opacity: 1;"><rect joint-selector="rect" id="v-6447" fill="#ffffff" rx="3" ry="3"  width="0" height="0" transform="matrix(1,0,0,1,0,0)" display="none"></rect><text joint-selector="text" id="v-6446" fill="#000000" font-size="14" text-anchor="middle" pointer-events="none"></text></g></g><g  display="none" style="display: none;"></g><g  id="v-6452" display="none"><g  id="v-6437"><path  end="source" d="M 26 0 L 0 13 L 26 26 z"></path></g><g  id="v-6438"><path  end="target" d="M 26 0 L 0 13 L 26 26 z"></path></g></g><g  id="v-6451" display="none"><g  id="v-6436" transform="translate(1945, 1205) "><g  event="remove"><circle r="11"></circle><path transform="scale(.8) translate(-16, -16)" d="M24.778,21.419 19.276,15.917 24.777,10.415 21.949,7.585 16.447,13.087 10.945,7.585 8.117,10.415 13.618,15.917 8.116,21.419 10.946,24.248 16.447,18.746 21.948,24.248z"></path><title>Remove link.</title></g><g  event="link:options"><circle r="11" transform="translate(25)"></circle><path fill="white" transform="scale(.55) translate(29, -16)" d="M31.229,17.736c0.064-0.571,0.104-1.148,0.104-1.736s-0.04-1.166-0.104-1.737l-4.377-1.557c-0.218-0.716-0.504-1.401-0.851-2.05l1.993-4.192c-0.725-0.91-1.549-1.734-2.458-2.459l-4.193,1.994c-0.647-0.347-1.334-0.632-2.049-0.849l-1.558-4.378C17.165,0.708,16.588,0.667,16,0.667s-1.166,0.041-1.737,0.105L12.707,5.15c-0.716,0.217-1.401,0.502-2.05,0.849L6.464,4.005C5.554,4.73,4.73,5.554,4.005,6.464l1.994,4.192c-0.347,0.648-0.632,1.334-0.849,2.05l-4.378,1.557C0.708,14.834,0.667,15.412,0.667,16s0.041,1.165,0.105,1.736l4.378,1.558c0.217,0.715,0.502,1.401,0.849,2.049l-1.994,4.193c0.725,0.909,1.549,1.733,2.459,2.458l4.192-1.993c0.648,0.347,1.334,0.633,2.05,0.851l1.557,4.377c0.571,0.064,1.148,0.104,1.737,0.104c0.588,0,1.165-0.04,1.736-0.104l1.558-4.377c0.715-0.218,1.399-0.504,2.049-0.851l4.193,1.993c0.909-0.725,1.733-1.549,2.458-2.458l-1.993-4.193c0.347-0.647,0.633-1.334,0.851-2.049L31.229,17.736zM16,20.871c-2.69,0-4.872-2.182-4.872-4.871c0-2.69,2.182-4.872,4.872-4.872c2.689,0,4.871,2.182,4.871,4.872C20.871,18.689,18.689,20.871,16,20.871z"></path><title>Link options.</title></g></g></g></g><!--z-index:31--><g   id="j_495" ><path  stroke="#707070" d="M 1195 565 L 1195 865" id="v-6468" stroke-width="2" stroke-dasharray="30 30" fill="none" style="opacity: 1;"></path><path  fill="black" stroke="black" d="M 0 0 0 0" transform="matrix(6.123233995736766e-17,1,-1,6.123233995736766e-17,1195,565)"></path><path  fill="#707070" stroke="#707070" d="M 20 0 L 0 10 L 20 20 z" id="v-6470" transform="matrix(-1.8369701987210297e-16,-1,1,-1.8369701987210297e-16,1185,865)" style="opacity: 1;"></path><path  d="M 1195 565 L 1195 865" id="v-6469" fill="none" style="cursor: auto; pointer-events: visiblepainted;"></path><g ><g id="v-6459"  label-idx="0" cursor="move" transform="matrix(1,0,0,1,1195,715)" style="cursor: default; opacity: 1;"><rect joint-selector="rect" id="v-6463" fill="#ffffff" rx="3" ry="3" pointer-events="none" width="172.92984008789062" height="90.5319938659668" transform="matrix(1,0,0,1,-86.2,-45.2)"></rect><text joint-selector="text" id="v-6462" font-size="24px" xml:space="preserve" y="0.8em" fill="#707070" text-anchor="middle" pointer-events="none" font-family="Open Sans" font-weight="normal" transform="matrix(1,0,0,1,0,-37.5)"><tspan dy="0" >Searches trains</tspan><tspan dy="1.2em" x="0" >and seats, buys</tspan><tspan dy="1.2em" x="0" >tickets using</tspan></text></g><g id="v-6460"  label-idx="1" cursor="move" transform="matrix(1,0,0,1,1195,770.2000122070312)" style="cursor: default; opacity: 1;"><rect joint-selector="rect" id="v-6465" fill="#ffffff" rx="3" ry="3" pointer-events="none" width="62.275054931640625" height="23.95053482055664" transform="matrix(1,0,0,1,-30.9,-12)"></rect><text joint-selector="text" id="v-6464" font-size="17px" xml:space="preserve" y="0.8em" fill="#707070" text-anchor="middle" pointer-events="none" font-family="Open Sans" font-weight="normal" transform="matrix(1,0,0,1,0,-7.6)"><tspan dy="0" >[HTTPS]</tspan></text></g><g id="v-6461"  label-idx="2" cursor="move" transform="matrix(1,0,0,1,1185,778.5999755859375)" style="cursor: default; opacity: 1;"><rect joint-selector="rect" id="v-6467" fill="#ffffff" rx="3" ry="3"  width="0" height="0" transform="matrix(1,0,0,1,0,0)" display="none"></rect><text joint-selector="text" id="v-6466" fill="#000000" font-size="14" text-anchor="middle" pointer-events="none"></text></g></g><g  display="none" style="display: none;"></g><g  id="v-6472" display="none"><g  id="v-6457"><path  end="source" d="M 26 0 L 0 13 L 26 26 z"></path></g><g  id="v-6458"><path  end="target" d="M 26 0 L 0 13 L 26 26 z"></path></g></g><g  id="v-6471" display="none"><g  id="v-6456" transform="translate(1195, 605) "><g  event="remove"><circle r="11"></circle><path transform="scale(.8) translate(-16, -16)" d="M24.778,21.419 19.276,15.917 24.777,10.415 21.949,7.585 16.447,13.087 10.945,7.585 8.117,10.415 13.618,15.917 8.116,21.419 10.946,24.248 16.447,18.746 21.948,24.248z"></path><title>Remove link.</title></g><g  event="link:options"><circle r="11" transform="translate(25)"></circle><path fill="white" transform="scale(.55) translate(29, -16)" d="M31.229,17.736c0.064-0.571,0.104-1.148,0.104-1.736s-0.04-1.166-0.104-1.737l-4.377-1.557c-0.218-0.716-0.504-1.401-0.851-2.05l1.993-4.192c-0.725-0.91-1.549-1.734-2.458-2.459l-4.193,1.994c-0.647-0.347-1.334-0.632-2.049-0.849l-1.558-4.378C17.165,0.708,16.588,0.667,16,0.667s-1.166,0.041-1.737,0.105L12.707,5.15c-0.716,0.217-1.401,0.502-2.05,0.849L6.464,4.005C5.554,4.73,4.73,5.554,4.005,6.464l1.994,4.192c-0.347,0.648-0.632,1.334-0.849,2.05l-4.378,1.557C0.708,14.834,0.667,15.412,0.667,16s0.041,1.165,0.105,1.736l4.378,1.558c0.217,0.715,0.502,1.401,0.849,2.049l-1.994,4.193c0.725,0.909,1.549,1.733,2.459,2.458l4.192-1.993c0.648,0.347,1.334,0.633,2.05,0.851l1.557,4.377c0.571,0.064,1.148,0.104,1.737,0.104c0.588,0,1.165-0.04,1.736-0.104l1.558-4.377c0.715-0.218,1.399-0.504,2.049-0.851l4.193,1.993c0.909-0.725,1.733-1.549,2.458-2.458l-1.993-4.193c0.347-0.647,0.633-1.334,0.851-2.049L31.229,17.736zM16,20.871c-2.69,0-4.872-2.182-4.872-4.871c0-2.69,2.182-4.872,4.872-4.872c2.689,0,4.871,2.182,4.871,4.872C20.871,18.689,18.689,20.871,16,20.871z"></path><title>Link options.</title></g></g></g></g><!--z-index:32--><g   id="j_496" ><path  stroke="#707070" d="M 1395 538 L 1772 865" id="v-6488" stroke-width="2" stroke-dasharray="30 30" fill="none" style="opacity: 1;"></path><path  fill="black" stroke="black" d="M 0 0 0 0" transform="matrix(0.7556831121859338,0.6549374275127215,-0.6549374275127215,0.7556831121859338,1395,538.3300170898438)"></path><path  fill="#707070" stroke="#707070" d="M 20 0 L 0 10 L 20 20 z" id="v-6490" transform="matrix(-0.7556831557910291,-0.6549373772000735,0.6549373772000735,-0.7556831557910291,1765.370616965597,872.5568278885048)" style="opacity: 1;"></path><path  d="M 1395 538 L 1772 865" id="v-6489" fill="none" style="cursor: auto; pointer-events: visiblepainted;"></path><g ><g id="v-6479"  label-idx="0" cursor="move" transform="matrix(1,0,0,1,1583.5,701.5)" style="cursor: default; opacity: 1;"><rect joint-selector="rect" id="v-6483" fill="#ffffff" rx="3" ry="3" pointer-events="none" width="189.15499877929688" height="61.731990814208984" transform="matrix(1,0,0,1,-93.6,-30.8)"></rect><text joint-selector="text" id="v-6482" font-size="24px" xml:space="preserve" y="0.8em" fill="#707070" text-anchor="middle" pointer-events="none" font-family="Open Sans" font-weight="normal" transform="matrix(1,0,0,1,0,-23.1)"><tspan dy="0" >Manages orders</tspan><tspan dy="1.2em" x="0" >and tickets using</tspan></text></g><g id="v-6480"  label-idx="1" cursor="move" transform="matrix(1,0,0,1,1583.5,742.2999877929688)" style="cursor: default; opacity: 1;"><rect joint-selector="rect" id="v-6485" fill="#ffffff" rx="3" ry="3" pointer-events="none" width="62.275054931640625" height="23.95053482055664" transform="matrix(1,0,0,1,-30.9,-12)"></rect><text joint-selector="text" id="v-6484" font-size="17px" xml:space="preserve" y="0.8em" fill="#707070" text-anchor="middle" pointer-events="none" font-family="Open Sans" font-weight="normal" transform="matrix(1,0,0,1,0,-7.6)"><tspan dy="0" >[HTTPS]</tspan></text></g><g id="v-6481"  label-idx="2" cursor="move" transform="matrix(1,0,0,1,1573.5,750.7000122070312)" style="cursor: default; opacity: 1;"><rect joint-selector="rect" id="v-6487" fill="#ffffff" rx="3" ry="3"  width="0" height="0" transform="matrix(1,0,0,1,0,0)" display="none"></rect><text joint-selector="text" id="v-6486" fill="#000000" font-size="14" text-anchor="middle" pointer-events="none"></text></g></g><g  display="none" style="display: none;"></g><g  id="v-6492" display="none"><g  id="v-6477"><path  end="source" d="M 26 0 L 0 13 L 26 26 z"></path></g><g  id="v-6478"><path  end="target" d="M 26 0 L 0 13 L 26 26 z"></path></g></g><g  id="v-6491" display="none"><g  id="v-6476" transform="translate(1425.2169825232704, 564.2094251594415) "><g  event="remove"><circle r="11"></circle><path transform="scale(.8) translate(-16, -16)" d="M24.778,21.419 19.276,15.917 24.777,10.415 21.949,7.585 16.447,13.087 10.945,7.585 8.117,10.415 13.618,15.917 8.116,21.419 10.946,24.248 16.447,18.746 21.948,24.248z"></path><title>Remove link.</title></g><g  event="link:options"><circle r="11" transform="translate(25)"></circle><path fill="white" transform="scale(.55) translate(29, -16)" d="M31.229,17.736c0.064-0.571,0.104-1.148,0.104-1.736s-0.04-1.166-0.104-1.737l-4.377-1.557c-0.218-0.716-0.504-1.401-0.851-2.05l1.993-4.192c-0.725-0.91-1.549-1.734-2.458-2.459l-4.193,1.994c-0.647-0.347-1.334-0.632-2.049-0.849l-1.558-4.378C17.165,0.708,16.588,0.667,16,0.667s-1.166,0.041-1.737,0.105L12.707,5.15c-0.716,0.217-1.401,0.502-2.05,0.849L6.464,4.005C5.554,4.73,4.73,5.554,4.005,6.464l1.994,4.192c-0.347,0.648-0.632,1.334-0.849,2.05l-4.378,1.557C0.708,14.834,0.667,15.412,0.667,16s0.041,1.165,0.105,1.736l4.378,1.558c0.217,0.715,0.502,1.401,0.849,2.049l-1.994,4.193c0.725,0.909,1.549,1.733,2.459,2.458l4.192-1.993c0.648,0.347,1.334,0.633,2.05,0.851l1.557,4.377c0.571,0.064,1.148,0.104,1.737,0.104c0.588,0,1.165-0.04,1.736-0.104l1.558-4.377c0.715-0.218,1.399-0.504,2.049-0.851l4.193,1.993c0.909-0.725,1.733-1.549,2.458-2.458l-1.993-4.193c0.347-0.647,0.633-1.334,0.851-2.049L31.229,17.736zM16,20.871c-2.69,0-4.872-2.182-4.872-4.871c0-2.69,2.182-4.872,4.872-4.872c2.689,0,4.871,2.182,4.871,4.872C20.871,18.689,18.689,20.871,16,20.871z"></path><title>Link options.</title></g></g></g></g><!--z-index:33--><g   id="j_497" ><path  stroke="#707070" d="M 995 538 L 618 865" id="v-6508" stroke-width="2" stroke-dasharray="30 30" fill="none" style="opacity: 1;"></path><path  fill="black" stroke="black" d="M 0 0 0 0" transform="matrix(-0.7556831557910288,0.6549373772000737,-0.6549373772000737,-0.7556831557910288,995,538.3300170898438)"></path><path  fill="#707070" stroke="#707070" d="M 20 0 L 0 10 L 20 20 z" id="v-6510" transform="matrix(0.755682981370628,-0.6549375784506484,0.6549375784506484,0.755682981370628,611.5306352220997,857.4431685293939)" style="opacity: 1;"></path><path  d="M 995 538 L 618 865" id="v-6509" fill="none" style="cursor: auto; pointer-events: visiblepainted;"></path><g ><g id="v-6499"  label-idx="0" cursor="move" transform="matrix(1,0,0,1,806.5,701.5)" style="cursor: default; opacity: 1;"><rect joint-selector="rect" id="v-6503" fill="#ffffff" rx="3" ry="3" pointer-events="none" width="196.82034301757812" height="90.5319938659668" transform="matrix(1,0,0,1,-98.2,-45.2)"></rect><text joint-selector="text" id="v-6502" font-size="24px" xml:space="preserve" y="0.8em" fill="#707070" text-anchor="middle" pointer-events="none" font-family="Open Sans" font-weight="normal" transform="matrix(1,0,0,1,0,-37.5)"><tspan dy="0" >Logs in and</tspan><tspan dy="1.2em" x="0" >manages account</tspan><tspan dy="1.2em" x="0" >using</tspan></text></g><g id="v-6500"  label-idx="1" cursor="move" transform="matrix(1,0,0,1,806.5,756.7000122070312)" style="cursor: default; opacity: 1;"><rect joint-selector="rect" id="v-6505" fill="#ffffff" rx="3" ry="3" pointer-events="none" width="62.275054931640625" height="23.95053482055664" transform="matrix(1,0,0,1,-30.9,-12)"></rect><text joint-selector="text" id="v-6504" font-size="17px" xml:space="preserve" y="0.8em" fill="#707070" text-anchor="middle" pointer-events="none" font-family="Open Sans" font-weight="normal" transform="matrix(1,0,0,1,0,-7.6)"><tspan dy="0" >[HTTPS]</tspan></text></g><g id="v-6501"  label-idx="2" cursor="move" transform="matrix(1,0,0,1,796.5,765.0999755859375)" style="cursor: default; opacity: 1;"><rect joint-selector="rect" id="v-6507" fill="#ffffff" rx="3" ry="3"  width="0" height="0" transform="matrix(1,0,0,1,0,0)" display="none"></rect><text joint-selector="text" id="v-6506" fill="#000000" font-size="14" text-anchor="middle" pointer-events="none"></text></g></g><g  display="none" style="display: none;"></g><g  id="v-6512" display="none"><g  id="v-6497"><path  end="source" d="M 26 0 L 0 13 L 26 26 z"></path></g><g  id="v-6498"><path  end="target" d="M 26 0 L 0 13 L 26 26 z"></path></g></g><g  id="v-6511" display="none"><g  id="v-6496" transform="translate(964.7830174767295, 564.2094251594415) "><g  event="remove"><circle r="11"></circle><path transform="scale(.8) translate(-16, -16)" d="M24.778,21.419 19.276,15.917 24.777,10.415 21.949,7.585 16.447,13.087 10.945,7.585 8.117,10.415 13.618,15.917 8.116,21.419 10.946,24.248 16.447,18.746 21.948,24.248z"></path><title>Remove link.</title></g><g  event="link:options"><circle r="11" transform="translate(25)"></circle><path fill="white" transform="scale(.55) translate(29, -16)" d="M31.229,17.736c0.064-0.571,0.104-1.148,0.104-1.736s-0.04-1.166-0.104-1.737l-4.377-1.557c-0.218-0.716-0.504-1.401-0.851-2.05l1.993-4.192c-0.725-0.91-1.549-1.734-2.458-2.459l-4.193,1.994c-0.647-0.347-1.334-0.632-2.049-0.849l-1.558-4.378C17.165,0.708,16.588,0.667,16,0.667s-1.166,0.041-1.737,0.105L12.707,5.15c-0.716,0.217-1.401,0.502-2.05,0.849L6.464,4.005C5.554,4.73,4.73,5.554,4.005,6.464l1.994,4.192c-0.347,0.648-0.632,1.334-0.849,2.05l-4.378,1.557C0.708,14.834,0.667,15.412,0.667,16s0.041,1.165,0.105,1.736l4.378,1.558c0.217,0.715,0.502,1.401,0.849,2.049l-1.994,4.193c0.725,0.909,1.549,1.733,2.459,2.458l4.192-1.993c0.648,0.347,1.334,0.633,2.05,0.851l1.557,4.377c0.571,0.064,1.148,0.104,1.737,0.104c0.588,0,1.165-0.04,1.736-0.104l1.558-4.377c0.715-0.218,1.399-0.504,2.049-0.851l4.193,1.993c0.909-0.725,1.733-1.549,2.458-2.458l-1.993-4.193c0.347-0.647,0.633-1.334,0.851-2.049L31.229,17.736zM16,20.871c-2.69,0-4.872-2.182-4.872-4.871c0-2.69,2.182-4.872,4.872-4.872c2.689,0,4.871,2.182,4.871,4.872C20.871,18.689,18.689,20.871,16,20.871z"></path><title>Link options.</title></g></g></g></g><!--z-index:34--><!--z-index:35--><!--z-index:36--><!--z-index:37--><!--z-index:38--><!--z-index:39--><!--z-index:40--><!--z-index:41--><!--z-index:42--><!--z-index:43--><!--z-index:44--><!--z-index:45--><!--z-index:46--><!--z-index:47--><!--z-index:48--><!--z-index:49--><!--z-index:50--><!--z-index:51--><!--z-index:52--><!--z-index:53--><!--z-index:54--><!--z-index:55--><!--z-index:56--><!--z-index:57--><!--z-index:58--><!--z-index:59--><!--z-index:60--><!--z-index:61--><!--z-index:62--><!--z-index:63--><!--z-index:64--><!--z-index:65--><!--z-index:66--><!--z-index:67--></g><g ></g><g ></g><g ></g></g></svg>